<?xml version="1.0" encoding="UTF-8"?>
<svg xmlns="http://www.w3.org/2000/svg" xmlns:xlink="http://www.w3.org/1999/xlink" width="500pt" height="500pt" viewBox="0 0 500 500" version="1.1">
<g id="surface1">
<path style=" stroke:none;fill-rule:nonzero;fill:#EE5E6A;fill-opacity:1;" d="M 119.046875 29.761719 C 102.734375 29.761719 89.285156 43.210938 89.285156 59.523438 L 89.285156 436.507813 C 89.285156 452.824219 102.734375 466.269531 119.046875 466.269531 L 317.460938 466.269531 C 333.773438 466.269531 347.222656 452.824219 347.222656 436.507813 L 347.222656 317.460938 L 436.507813 317.460938 C 452.785156 317.460938 466.269531 304.011719 466.269531 287.699219 L 466.269531 169.621094 C 466.269531 152.800781 452.433594 138.890625 435.578125 138.890625 L 347.222656 138.890625 L 347.222656 59.523438 C 347.222656 43.210938 333.773438 29.761719 317.460938 29.761719 Z M 109.128906 99.207031 L 327.382813 99.207031 L 327.382813 138.890625 L 248.945313 138.890625 C 232.089844 138.890625 218.253906 152.800781 218.253906 169.621094 L 218.253906 287.699219 C 218.253906 304.011719 231.738281 317.460938 248.015625 317.460938 L 266.578125 317.460938 C 266.113281 320.714844 266.152344 325.289063 265.222656 327.382813 C 263.4375 331.605469 260.765625 334.742188 254.175781 338.695313 C 250.339844 341.023438 248.519531 345.59375 249.722656 349.894531 C 250.921875 354.199219 254.835938 357.144531 259.292969 357.144531 C 281.421875 357.144531 308.855469 346.796875 323.039063 317.460938 L 327.382813 317.460938 L 327.382813 386.90625 L 109.128906 386.90625 Z M 248.945313 158.730469 L 335.636719 158.730469 C 336.71875 158.925781 337.804688 158.925781 338.851563 158.730469 L 435.578125 158.730469 C 441.585938 158.730469 446.429688 163.574219 446.429688 169.621094 L 446.429688 287.699219 C 446.429688 294.285156 443.058594 297.617188 436.507813 297.617188 L 317.460938 297.617188 C 313.3125 297.617188 309.554688 300.214844 308.160156 304.128906 C 302.617188 319.242188 293.820313 327.03125 284.015625 331.644531 C 286.496094 324.242188 287.699219 316.609375 287.699219 307.539063 C 287.699219 302.074219 283.242188 297.617188 277.777344 297.617188 L 248.015625 297.617188 C 241.464844 297.617188 238.09375 294.285156 238.09375 287.699219 L 238.09375 169.621094 C 238.09375 163.574219 242.9375 158.730469 248.945313 158.730469 Z M 347.222656 178.570313 C 341.757813 178.570313 337.300781 183.027344 337.300781 188.492188 C 337.300781 189.074219 337.339844 189.695313 337.457031 190.273438 C 325.832031 194.34375 317.460938 205.273438 317.460938 218.253906 L 317.460938 248.015625 C 317.460938 253.480469 313.003906 257.9375 307.539063 257.9375 L 307.539063 267.855469 L 337.300781 267.855469 C 337.300781 273.320313 341.757813 277.777344 347.222656 277.777344 C 352.6875 277.777344 357.144531 273.320313 357.144531 267.855469 L 386.90625 267.855469 L 386.90625 257.9375 C 381.441406 257.9375 376.984375 253.480469 376.984375 248.015625 L 376.984375 218.253906 C 376.984375 205.234375 368.613281 194.304688 356.988281 190.234375 C 357.066406 189.65625 357.144531 189.074219 357.144531 188.492188 C 357.144531 183.027344 352.6875 178.570313 347.222656 178.570313 Z M 188.492188 416.667969 L 248.015625 416.667969 C 253.480469 416.667969 257.9375 421.125 257.9375 426.585938 C 257.9375 432.050781 253.480469 436.507813 248.015625 436.507813 L 188.492188 436.507813 C 183.027344 436.507813 178.570313 432.050781 178.570313 426.585938 C 178.570313 421.125 183.027344 416.667969 188.492188 416.667969 Z "/>
</g>
</svg>
