<?xml version="1.0" encoding="UTF-8"?>
<svg xmlns="http://www.w3.org/2000/svg" xmlns:xlink="http://www.w3.org/1999/xlink" width="500pt" height="500pt" viewBox="0 0 500 500" version="1.1">
<g id="surface1">
<path style=" stroke:none;fill-rule:nonzero;fill:#EE5E6A;fill-opacity:1;" d="M 69.445313 19.839844 L 69.445313 476.191406 L 426.585938 476.191406 L 426.585938 144.777344 L 423.796875 141.679688 L 304.75 22.632813 L 301.648438 19.839844 Z M 89.285156 39.683594 L 287.699219 39.683594 L 287.699219 158.730469 L 406.746094 158.730469 L 406.746094 456.347656 L 89.285156 456.347656 Z M 307.539063 53.945313 L 392.484375 138.890625 L 307.539063 138.890625 Z M 138.890625 99.207031 L 138.890625 119.046875 L 267.855469 119.046875 L 267.855469 99.207031 Z M 138.890625 138.890625 L 138.890625 158.730469 L 267.855469 158.730469 L 267.855469 138.890625 Z M 138.890625 178.570313 L 138.890625 198.414063 L 367.0625 198.414063 L 367.0625 178.570313 Z M 138.890625 218.253906 L 138.890625 238.09375 L 367.0625 238.09375 L 367.0625 218.253906 Z M 138.890625 257.9375 L 138.890625 277.777344 L 367.0625 277.777344 L 367.0625 257.9375 Z M 199.960938 303.199219 C 188.6875 303.199219 179.5 310.40625 173.300781 319.628906 C 167.101563 328.855469 163.378906 340.710938 163.378906 353.734375 C 163.378906 364.660156 166.789063 376.519531 173.300781 386.59375 C 174.152344 387.914063 175.703125 388.726563 176.710938 390.003906 C 173.496094 392.871094 167.410156 398.996094 167.410156 398.996094 C 164.234375 400.933594 162.371094 404.460938 162.644531 408.179688 C 162.875 411.898438 165.203125 415.15625 168.652344 416.628906 C 172.0625 418.101563 176.015625 417.519531 178.882813 415.117188 C 178.882813 415.117188 187.214844 407.015625 193.140625 401.785156 C 196.785156 403.21875 200.078125 405.507813 204.304688 405.507813 C 229.335938 405.507813 245.921875 392.019531 255.457031 379.773438 C 258.246094 376.171875 259.757813 373.574219 261.65625 370.472656 C 262.355469 372.605469 262.972656 374.621094 263.828125 376.675781 C 264.445313 378.148438 265.144531 379.621094 266.308594 381.324219 C 267.46875 383.03125 269.679688 386.90625 275.917969 386.90625 C 282.542969 386.90625 286.613281 383.726563 290.488281 381.015625 C 294.363281 378.300781 297.851563 375.277344 301.648438 372.332031 C 309.246094 366.40625 316.878906 361.792969 322.421875 361.792969 C 325.984375 361.832031 329.320313 359.972656 331.140625 356.871094 C 332.921875 353.769531 332.921875 349.972656 331.140625 346.875 C 329.320313 343.773438 325.984375 341.914063 322.421875 341.953125 C 308.46875 341.953125 297.890625 350.011719 289.558594 356.523438 C 285.992188 359.3125 283.125 361.753906 280.566406 363.652344 C 280.257813 362.722656 279.988281 362.179688 279.636719 361.171875 C 278.554688 357.996094 277.195313 354.777344 275.609375 351.5625 C 274.792969 349.933594 274.097656 348.074219 272.507813 346.292969 C 270.917969 344.507813 267.894531 341.953125 263.207031 341.953125 C 256.773438 341.953125 254.566406 345.867188 252.976563 347.84375 C 251.386719 349.820313 250.1875 351.601563 248.945313 353.734375 C 246.425781 357.957031 243.636719 362.957031 239.957031 367.683594 C 233.289063 376.246094 223.757813 383.300781 208.644531 384.734375 C 218.835938 371.015625 227.863281 353.925781 227.863281 333.269531 C 227.863281 326.566406 226.625 319.242188 221.972656 313.121094 C 217.324219 306.996094 209.070313 303.199219 199.960938 303.199219 Z M 199.960938 323.039063 C 204.304688 323.039063 205.117188 323.855469 206.164063 325.210938 C 207.210938 326.566406 208.023438 329.511719 208.023438 333.269531 C 208.023438 349.082031 199.421875 363.925781 190.042969 375.742188 C 185.894531 369.3125 183.222656 360.28125 183.222656 353.734375 C 183.222656 344.625 185.972656 336.101563 189.730469 330.480469 C 193.492188 324.863281 197.792969 323.039063 199.960938 323.039063 Z "/>
</g>
</svg>
