<svg width="1868" height="353" viewBox="0 0 1868 353" fill="none" xmlns="http://www.w3.org/2000/svg">
<path d="M467.216 239.392C477.2 239.392 486.704 236.8 495.728 231.616C504.752 226.432 512.24 219.328 518.192 210.304V224.992C511.088 232.864 503.312 238.624 494.864 242.272C486.416 245.728 476.816 247.456 466.064 247.456C454.16 247.456 442.928 244.288 432.368 237.952C422 231.616 413.648 223.168 407.312 212.608C401.168 202.048 398.096 190.816 398.096 178.912C398.096 166.048 401.168 154.528 407.312 144.352C413.456 133.984 421.808 125.92 432.368 120.16C443.12 114.4 455.024 111.52 468.08 111.52C488.048 111.52 505.04 119.392 519.056 135.136L428.624 224.416C434.96 229.6 441.104 233.44 447.056 235.936C453.008 238.24 459.728 239.392 467.216 239.392ZM407.312 178.048C407.312 193.984 412.592 207.616 423.152 218.944L507.536 135.136C501.2 129.568 495.056 125.632 489.104 123.328C483.152 120.832 476.048 119.584 467.792 119.584C456.08 119.584 445.616 122.176 436.4 127.36C427.376 132.352 420.272 139.264 415.088 148.096C409.904 156.928 407.312 166.912 407.312 178.048Z" fill="#EE5E6A"/>
<path d="M608.919 247.168C596.631 247.168 585.207 244.096 574.647 237.952C564.087 231.808 555.735 223.552 549.591 213.184C543.447 202.624 540.375 191.296 540.375 179.2C540.375 167.104 543.447 155.872 549.591 145.504C555.735 134.944 564.087 126.592 574.647 120.448C585.207 114.304 596.631 111.232 608.919 111.232C621.399 111.232 633.207 114.592 644.343 121.312C655.479 127.84 663.255 136.384 667.671 146.944V114.4H676.887V244H667.671V211.744C662.487 222.496 654.423 231.136 643.479 237.664C632.727 244 621.207 247.168 608.919 247.168ZM609.495 239.104C620.055 239.104 629.847 236.416 638.871 231.04C647.895 225.472 654.999 218.176 660.183 209.152C665.559 199.936 668.247 189.952 668.247 179.2C668.247 168.64 665.559 158.752 660.183 149.536C654.807 140.32 647.607 133.024 638.583 127.648C629.559 122.08 619.767 119.296 609.207 119.296C598.647 119.296 588.759 122.08 579.543 127.648C570.519 133.216 563.223 140.608 557.655 149.824C552.279 159.04 549.591 168.928 549.591 179.488C549.591 190.048 552.279 199.936 557.655 209.152C563.223 218.176 570.615 225.472 579.831 231.04C589.047 236.416 598.935 239.104 609.495 239.104Z" fill="#EE5E6A"/>
<path d="M744.63 247.168C735.414 247.168 727.254 245.632 720.15 242.56C713.046 239.296 707.958 235.168 704.886 230.176V214.912C708.534 223.168 713.526 229.312 719.862 233.344C726.198 237.184 734.262 239.104 744.054 239.104C753.462 239.104 761.046 236.224 766.806 230.464C772.566 224.512 775.446 216.928 775.446 207.712C775.446 199.84 773.814 193.792 770.55 189.568C767.286 185.152 762.006 180.736 754.71 176.32L743.766 169.984C735.894 165.184 729.942 161.44 725.91 158.752C722.07 155.872 718.998 152.704 716.694 149.248C714.39 145.6 713.238 141.376 713.238 136.576C713.238 128.896 715.926 122.752 721.302 118.144C726.678 113.536 733.686 111.232 742.326 111.232C752.886 111.232 761.718 113.632 768.822 118.432V131.104C762.87 123.232 754.326 119.296 743.19 119.296C737.046 119.296 732.054 120.832 728.214 123.904C724.374 126.976 722.454 130.912 722.454 135.712C722.454 139.936 723.606 143.68 725.91 146.944C728.214 150.016 731.382 152.896 735.414 155.584C739.638 158.272 746.55 162.304 756.15 167.68C765.942 173.248 773.142 179.008 777.75 184.96C782.358 190.72 784.662 198.304 784.662 207.712C784.662 219.616 780.726 229.216 772.854 236.512C765.174 243.616 755.766 247.168 744.63 247.168Z" fill="#EE5E6A"/>
<path d="M866.931 301.312C845.427 301.312 828.435 293.632 815.955 278.272V263.584C822.291 273.568 829.491 280.96 837.555 285.76C845.619 290.752 855.027 293.248 865.779 293.248C876.723 293.248 886.035 290.944 893.715 286.336C901.587 281.728 907.539 275.392 911.571 267.328C915.603 259.456 917.619 250.624 917.619 240.832V218.944C913.011 227.968 906.003 234.976 896.595 239.968C887.379 244.768 877.299 247.168 866.355 247.168C855.411 247.168 845.715 244.768 837.267 239.968C828.819 235.168 822.195 228.448 817.395 219.808C812.787 211.168 810.483 201.184 810.483 189.856V114.4H819.699V189.856C819.699 200.224 821.811 209.152 826.035 216.64C830.451 223.936 836.211 229.504 843.315 233.344C850.419 237.184 858.195 239.104 866.643 239.104C875.859 239.104 884.403 236.896 892.275 232.48C900.147 227.872 906.291 221.824 910.707 214.336C915.315 206.656 917.619 198.496 917.619 189.856V114.4H926.835V239.968C926.835 251.488 924.435 261.856 919.635 271.072C915.027 280.48 908.211 287.872 899.187 293.248C890.163 298.624 879.411 301.312 866.931 301.312Z" fill="#EE5E6A"/>
<path d="M960.175 114.4H969.391V143.2C973.615 133.6 980.815 125.92 990.991 120.16C1001.17 114.208 1012.4 111.232 1024.69 111.232C1040.62 111.232 1053.2 116.32 1062.42 126.496C1071.82 136.48 1076.53 150.496 1076.53 168.544V244H1067.31V168.544C1067.31 152.992 1063.47 140.896 1055.79 132.256C1048.3 123.616 1037.74 119.296 1024.11 119.296C1014.13 119.296 1004.91 121.6 996.463 126.208C988.207 130.624 981.583 136.768 976.591 144.64C971.791 152.512 969.391 161.44 969.391 171.424V244H960.175V114.4Z" fill="#EE5E6A"/>
<path d="M1174.53 248.608C1161.47 248.608 1149.66 245.44 1139.1 239.104C1128.54 232.576 1120.29 224.032 1114.33 213.472C1108.38 202.72 1105.41 191.104 1105.41 178.624C1105.41 166.336 1108.38 154.912 1114.33 144.352C1120.48 133.792 1128.73 125.44 1139.1 119.296C1149.66 112.96 1161.37 109.792 1174.24 109.792C1186.91 109.792 1198.43 112.96 1208.8 119.296C1219.36 125.44 1227.61 133.792 1233.57 144.352C1239.52 154.912 1242.49 166.336 1242.49 178.624C1242.49 191.488 1239.61 203.296 1233.85 214.048C1228.09 224.608 1220.03 233.056 1209.66 239.392C1199.49 245.536 1187.77 248.608 1174.53 248.608ZM1174.53 240.544C1185.47 240.544 1195.45 237.76 1204.48 232.192C1213.5 226.624 1220.51 219.232 1225.5 210.016C1230.69 200.608 1233.28 190.336 1233.28 179.2C1233.28 168.256 1230.69 158.08 1225.5 148.672C1220.32 139.264 1213.21 131.776 1204.19 126.208C1195.17 120.64 1185.18 117.856 1174.24 117.856C1163.29 117.856 1153.21 120.736 1144 126.496C1134.97 132.064 1127.77 139.552 1122.4 148.96C1117.21 158.368 1114.62 168.544 1114.62 179.488C1114.62 190.432 1117.21 200.608 1122.4 210.016C1127.77 219.232 1134.97 226.624 1144 232.192C1153.21 237.76 1163.39 240.544 1174.53 240.544Z" fill="#EE5E6A"/>
<path d="M1332.87 248.608C1319.81 248.608 1308.01 245.44 1297.45 239.104C1286.89 232.576 1278.63 224.032 1272.68 213.472C1266.73 202.72 1263.75 191.104 1263.75 178.624C1263.75 166.336 1266.73 154.912 1272.68 144.352C1278.82 133.792 1287.08 125.44 1297.45 119.296C1308.01 112.96 1319.72 109.792 1332.58 109.792C1345.25 109.792 1356.77 112.96 1367.14 119.296C1377.7 125.44 1385.96 133.792 1391.91 144.352C1397.86 154.912 1400.84 166.336 1400.84 178.624C1400.84 191.488 1397.96 203.296 1392.2 214.048C1386.44 224.608 1378.37 233.056 1368.01 239.392C1357.83 245.536 1346.12 248.608 1332.87 248.608ZM1332.87 240.544C1343.81 240.544 1353.8 237.76 1362.82 232.192C1371.85 226.624 1378.85 219.232 1383.85 210.016C1389.03 200.608 1391.62 190.336 1391.62 179.2C1391.62 168.256 1389.03 158.08 1383.85 148.672C1378.66 139.264 1371.56 131.776 1362.53 126.208C1353.51 120.64 1343.53 117.856 1332.58 117.856C1321.64 117.856 1311.56 120.736 1302.34 126.496C1293.32 132.064 1286.12 139.552 1280.74 148.96C1275.56 158.368 1272.97 168.544 1272.97 179.488C1272.97 190.432 1275.56 200.608 1280.74 210.016C1286.12 219.232 1293.32 226.624 1302.34 232.192C1311.56 237.76 1321.73 240.544 1332.87 240.544Z" fill="#EE5E6A"/>
<path d="M1426.77 114.4H1435.99V143.2C1440.21 133.6 1447.41 125.92 1457.59 120.16C1467.76 114.208 1478.99 111.232 1491.28 111.232C1507.22 111.232 1519.79 116.32 1529.01 126.496C1538.42 136.48 1543.12 150.496 1543.12 168.544V244H1533.91V168.544C1533.91 152.992 1530.07 140.896 1522.39 132.256C1514.9 123.616 1504.34 119.296 1490.71 119.296C1480.72 119.296 1471.51 121.6 1463.06 126.208C1454.8 130.624 1448.18 136.768 1443.19 144.64C1438.39 152.512 1435.99 161.44 1435.99 171.424V244H1426.77V114.4Z" fill="#EE5E6A"/>
<path d="M1641.12 248.608C1628.06 248.608 1616.26 245.44 1605.7 239.104C1595.14 232.576 1586.88 224.032 1580.93 213.472C1574.98 202.72 1572 191.104 1572 178.624C1572 166.336 1574.98 154.912 1580.93 144.352C1587.07 133.792 1595.33 125.44 1605.7 119.296C1616.26 112.96 1627.97 109.792 1640.83 109.792C1653.5 109.792 1665.02 112.96 1675.39 119.296C1685.95 125.44 1694.21 133.792 1700.16 144.352C1706.11 154.912 1709.09 166.336 1709.09 178.624C1709.09 191.488 1706.21 203.296 1700.45 214.048C1694.69 224.608 1686.62 233.056 1676.26 239.392C1666.08 245.536 1654.37 248.608 1641.12 248.608ZM1641.12 240.544C1652.06 240.544 1662.05 237.76 1671.07 232.192C1680.1 226.624 1687.1 219.232 1692.1 210.016C1697.28 200.608 1699.87 190.336 1699.87 179.2C1699.87 168.256 1697.28 158.08 1692.1 148.672C1686.91 139.264 1679.81 131.776 1670.78 126.208C1661.76 120.64 1651.78 117.856 1640.83 117.856C1629.89 117.856 1619.81 120.736 1610.59 126.496C1601.57 132.064 1594.37 139.552 1588.99 148.96C1583.81 158.368 1581.22 168.544 1581.22 179.488C1581.22 190.432 1583.81 200.608 1588.99 210.016C1594.37 219.232 1601.57 226.624 1610.59 232.192C1619.81 237.76 1629.98 240.544 1641.12 240.544Z" fill="#EE5E6A"/>
<path d="M1799.46 248.608C1786.41 248.608 1774.6 245.44 1764.04 239.104C1753.48 232.576 1745.22 224.032 1739.27 213.472C1733.32 202.72 1730.34 191.104 1730.34 178.624C1730.34 166.336 1733.32 154.912 1739.27 144.352C1745.42 133.792 1753.67 125.44 1764.04 119.296C1774.6 112.96 1786.31 109.792 1799.18 109.792C1811.85 109.792 1823.37 112.96 1833.74 119.296C1844.3 125.44 1852.55 133.792 1858.5 144.352C1864.46 154.912 1867.43 166.336 1867.43 178.624C1867.43 191.488 1864.55 203.296 1858.79 214.048C1853.03 224.608 1844.97 233.056 1834.6 239.392C1824.42 245.536 1812.71 248.608 1799.46 248.608ZM1799.46 240.544C1810.41 240.544 1820.39 237.76 1829.42 232.192C1838.44 226.624 1845.45 219.232 1850.44 210.016C1855.62 200.608 1858.22 190.336 1858.22 179.2C1858.22 168.256 1855.62 158.08 1850.44 148.672C1845.26 139.264 1838.15 131.776 1829.13 126.208C1820.1 120.64 1810.12 117.856 1799.18 117.856C1788.23 117.856 1778.15 120.736 1768.94 126.496C1759.91 132.064 1752.71 139.552 1747.34 148.96C1742.15 158.368 1739.56 168.544 1739.56 179.488C1739.56 190.432 1742.15 200.608 1747.34 210.016C1752.71 219.232 1759.91 226.624 1768.94 232.192C1778.15 237.76 1788.33 240.544 1799.46 240.544Z" fill="#EE5E6A"/>
<path fill-rule="evenodd" clip-rule="evenodd" d="M168.797 0.284171C168.247 0.527132 165.983 0.741656 163.764 0.761113C153.698 0.848419 131.706 5.27909 119.091 9.76064C96.8675 17.6561 79.2087 27.8191 61.392 42.967C46.9083 55.2816 33.2525 71.8898 23.049 89.599C8.2207 115.336 0 146.475 0 176.905C0 192.014 1.88832 206.355 5.97869 222.305C8.45999 231.978 9.88273 235.446 11.4638 235.672C13.1134 235.907 14.04 234.39 18.1494 224.715C24.9738 208.65 26.6843 204.755 30.2731 197.11C40.0549 176.275 40.6089 175.198 50.2913 158.197C65.341 131.772 80.9312 115.148 94.7529 110.787C99.4857 109.294 101.284 109.258 106.354 110.553C110.733 111.672 113.005 112.855 118.925 117.103C124.568 121.152 125.006 121.116 131.833 116.015C137.926 111.462 140.365 110.116 145.245 108.614C149.505 107.302 151.361 107.294 156.353 108.566C170.954 112.289 183.377 127.305 208.761 171.916C214.144 181.378 223.179 196.462 226.092 200.852C228.361 204.271 230.135 205.177 231.824 203.777C235.226 200.957 253.221 168.01 263.399 145.965C269.685 132.35 271.994 127.278 276.686 116.779C283.934 100.559 290.169 85.9067 299.078 64.1554C302.615 55.5191 302.604 55.5645 301.743 53.5051C299.761 48.7686 281.691 33.9754 267.245 25.2632C244.377 11.4718 217.455 2.8864 190.278 0.719705C181.106 -0.0116722 169.977 -0.237172 168.797 0.284171ZM312.046 68.1251C311.511 68.6994 309.659 72.5872 307.93 76.765C300.326 95.1442 290.791 117.126 281.695 137.243C276.217 149.359 264.32 173.743 259.91 181.894C253.717 193.339 245.993 206.577 242.34 212.005C239.636 216.023 239.434 217.993 241.466 220.541C242.333 221.629 244.14 223.455 245.483 224.599C250.927 229.24 255.579 230.164 260.366 227.553C268.711 223.003 282.138 204.325 296.774 176.905C301.683 167.708 310.298 150.593 313.351 143.97C314.551 141.368 316.982 136.096 318.754 132.254C328.883 110.292 333.4 99.5539 333.4 97.4441C333.4 95.1911 331.916 92.2636 325.614 82.0892C322.246 76.6517 315.604 67.6477 314.96 67.6477C314.707 67.6477 314.167 67.52 313.76 67.3643C313.353 67.2087 312.582 67.5509 312.046 68.1251ZM339.738 118.432C338.955 119.296 337.716 121.848 332.663 133.003C317.265 166.99 302.992 193.951 290.272 213.075C284.457 221.818 280.741 226.39 274.601 232.356C268.927 237.868 265.805 239.883 260.499 241.456C253.286 243.594 244.786 240.884 235.634 233.527C230.532 229.425 229.888 229.565 222.637 236.358C217.542 241.131 210.861 244.256 205.753 244.256C201.971 244.256 195.994 242.375 191.852 239.881C180.71 233.173 170.486 219.862 152.297 188.38C142.652 171.688 140.389 167.835 134.308 157.76C126.675 145.115 125.438 143.837 122.687 145.761C118.946 148.378 102.727 176.798 94.094 195.863C92.7896 198.744 90.3348 204.132 88.6393 207.837C77.5491 232.064 52.5783 295.481 52.4674 299.7C52.404 302.125 53.3421 303.36 59.1869 308.543C74.6667 322.269 94.0855 334.042 113.096 341.226C129.571 347.451 138.851 349.605 161.579 352.475C166.844 353.14 186.38 353.185 190.93 352.543C192.769 352.283 196.522 351.81 199.27 351.49C214.139 349.762 231.646 345.028 246.328 338.765C268.845 329.16 292.011 312.657 306.963 295.569C317.62 283.391 321.663 277.933 328.956 265.873C338.74 249.694 345.938 230.53 350.112 209.552C353.407 192.989 353.947 168.743 351.399 151.711C349.579 139.547 344.864 121.401 342.863 118.861C341.641 117.309 340.854 117.201 339.738 118.432ZM147.711 121.231C144.978 122.113 139.96 125.712 136.891 128.991C134.71 131.32 134.489 131.767 134.741 133.32C134.899 134.289 136.661 137.512 138.742 140.638C143.281 147.453 150.606 159.58 157.807 172.201C174.863 202.094 183.423 214.879 192.024 223.306C202.129 233.206 207.591 233.511 216.495 224.671C220.481 220.714 221.375 218.678 220.278 216.057C219.905 215.165 218.044 212.109 216.144 209.265C212.754 204.195 207.053 194.795 202.267 186.384C191.199 166.933 178.429 146.075 173.667 139.668C171.044 136.14 166.718 131.118 164.054 128.509C157.145 121.743 152.516 119.681 147.711 121.231ZM97.7557 123.227C92.7172 124.852 82.3639 134.183 75.5589 143.23C65.0902 157.149 53.2517 177.732 44.1383 197.859C42.834 200.74 40.3772 206.128 38.6797 209.832C29.9619 228.854 19.9483 253.793 19.9503 256.479C19.9523 258.858 23.4876 265.392 30.2172 275.452C35.8332 283.847 38.7846 287.161 40.6454 287.161C41.4107 287.161 42.285 286.862 42.5882 286.497C42.8914 286.132 44.5834 282.035 46.3478 277.392C52.4314 261.384 54.5471 255.942 59.0366 244.755C66.7802 225.458 75.0933 206 80.4576 194.616C87.8615 178.905 90.8069 172.92 93.4695 168.175C101.632 153.63 104.595 148.64 108.526 142.818C115.696 132.2 115.653 132.409 111.511 128.193C107.139 123.742 101.956 121.871 97.7557 123.227Z" fill="#EE5E6A"/>
</svg>
