<svg width="353" height="353" viewBox="0 0 353 353" fill="none" xmlns="http://www.w3.org/2000/svg">
<path fill-rule="evenodd" clip-rule="evenodd" d="M168.797 0.284171C168.247 0.527132 165.983 0.741656 163.764 0.761113C153.698 0.848419 131.706 5.27909 119.091 9.76064C96.8675 17.6561 79.2087 27.8191 61.392 42.967C46.9083 55.2816 33.2525 71.8898 23.049 89.599C8.2207 115.336 0 146.475 0 176.905C0 192.014 1.88832 206.355 5.97869 222.305C8.45999 231.978 9.88273 235.446 11.4638 235.672C13.1134 235.907 14.04 234.39 18.1494 224.715C24.9738 208.65 26.6843 204.755 30.2731 197.11C40.0549 176.275 40.6089 175.198 50.2913 158.197C65.341 131.772 80.9312 115.148 94.7529 110.787C99.4857 109.294 101.284 109.258 106.354 110.553C110.733 111.672 113.005 112.855 118.925 117.103C124.568 121.152 125.006 121.116 131.833 116.015C137.926 111.462 140.365 110.116 145.245 108.614C149.505 107.302 151.361 107.294 156.353 108.566C170.954 112.289 183.377 127.305 208.761 171.916C214.144 181.378 223.179 196.462 226.092 200.852C228.361 204.271 230.135 205.177 231.824 203.777C235.226 200.957 253.221 168.01 263.399 145.965C269.685 132.35 271.994 127.278 276.686 116.779C283.934 100.559 290.169 85.9067 299.078 64.1554C302.615 55.5191 302.604 55.5645 301.743 53.5051C299.761 48.7686 281.691 33.9754 267.245 25.2632C244.377 11.4718 217.455 2.8864 190.278 0.719705C181.106 -0.0116722 169.977 -0.237172 168.797 0.284171ZM312.046 68.1251C311.511 68.6994 309.659 72.5872 307.93 76.765C300.326 95.1442 290.791 117.126 281.695 137.243C276.217 149.359 264.32 173.743 259.91 181.894C253.717 193.339 245.993 206.577 242.34 212.005C239.636 216.023 239.434 217.993 241.466 220.541C242.333 221.629 244.14 223.455 245.483 224.599C250.927 229.24 255.579 230.164 260.366 227.553C268.711 223.003 282.138 204.325 296.774 176.905C301.683 167.708 310.298 150.593 313.351 143.97C314.551 141.368 316.982 136.096 318.754 132.254C328.883 110.292 333.4 99.5539 333.4 97.4441C333.4 95.1911 331.916 92.2636 325.614 82.0892C322.246 76.6517 315.604 67.6477 314.96 67.6477C314.707 67.6477 314.167 67.52 313.76 67.3643C313.353 67.2087 312.582 67.5509 312.046 68.1251ZM339.738 118.432C338.955 119.296 337.716 121.848 332.663 133.003C317.265 166.99 302.992 193.951 290.272 213.075C284.457 221.818 280.741 226.39 274.601 232.356C268.927 237.868 265.805 239.883 260.499 241.456C253.286 243.594 244.786 240.884 235.634 233.527C230.532 229.425 229.888 229.565 222.637 236.358C217.542 241.131 210.861 244.256 205.753 244.256C201.971 244.256 195.994 242.375 191.852 239.881C180.71 233.173 170.486 219.862 152.297 188.38C142.652 171.688 140.389 167.835 134.308 157.76C126.675 145.115 125.438 143.837 122.687 145.761C118.946 148.378 102.727 176.798 94.094 195.863C92.7896 198.744 90.3348 204.132 88.6393 207.837C77.5491 232.064 52.5783 295.481 52.4674 299.7C52.404 302.125 53.3421 303.36 59.1869 308.543C74.6667 322.269 94.0855 334.042 113.096 341.226C129.571 347.451 138.851 349.605 161.579 352.475C166.844 353.14 186.38 353.185 190.93 352.543C192.769 352.283 196.522 351.81 199.27 351.49C214.139 349.762 231.646 345.028 246.328 338.765C268.845 329.16 292.011 312.657 306.963 295.569C317.62 283.391 321.663 277.933 328.956 265.873C338.74 249.694 345.938 230.53 350.112 209.552C353.407 192.989 353.947 168.743 351.399 151.711C349.579 139.547 344.864 121.401 342.863 118.861C341.641 117.309 340.854 117.201 339.738 118.432ZM147.711 121.231C144.978 122.113 139.96 125.712 136.891 128.991C134.71 131.32 134.489 131.767 134.741 133.32C134.899 134.289 136.661 137.512 138.742 140.638C143.281 147.453 150.606 159.58 157.807 172.201C174.863 202.094 183.423 214.879 192.024 223.306C202.129 233.206 207.591 233.511 216.495 224.671C220.481 220.714 221.375 218.678 220.278 216.057C219.905 215.165 218.044 212.109 216.144 209.265C212.754 204.195 207.053 194.795 202.267 186.384C191.199 166.933 178.429 146.075 173.667 139.668C171.044 136.14 166.718 131.118 164.054 128.509C157.145 121.743 152.516 119.681 147.711 121.231ZM97.7557 123.227C92.7172 124.852 82.3639 134.183 75.5589 143.23C65.0902 157.149 53.2517 177.732 44.1383 197.859C42.834 200.74 40.3772 206.128 38.6797 209.832C29.9619 228.854 19.9483 253.793 19.9503 256.479C19.9523 258.858 23.4876 265.392 30.2172 275.452C35.8332 283.847 38.7846 287.161 40.6454 287.161C41.4107 287.161 42.285 286.862 42.5882 286.497C42.8914 286.132 44.5834 282.035 46.3478 277.392C52.4314 261.384 54.5471 255.942 59.0366 244.755C66.7802 225.458 75.0933 206 80.4576 194.616C87.8615 178.905 90.8069 172.92 93.4695 168.175C101.632 153.63 104.595 148.64 108.526 142.818C115.696 132.2 115.653 132.409 111.511 128.193C107.139 123.742 101.956 121.871 97.7557 123.227Z" fill="#EE5E6A"/>
</svg>
