<svg width="1232" height="862" viewBox="0 0 1232 862" fill="none" xmlns="http://www.w3.org/2000/svg">
<rect width="1232" height="862" fill="white"/>
<path d="M293.55 677C294.88 674.02 295.75 670.86 295.97 667.47C298 636.73 265.79 641.72 246.72 632.76C228.91 624.39 228.16 604.98 226.89 587.86C225.2 564.94 223.67 548.71 207.88 530.39C174.17 491.27 182.12 448.54 164.26 403.11C152.72 373.76 125.54 351.01 95.71 340.29C86.87 337.11 76.58 334.71 65.74 337.91C46.03 343.72 35.45 364.77 37.1 380.16C38.75 395.54 48.27 408.07 51.16 423.07C54.05 438.07 47 458.75 28 467.33C18.47 471.63 5.61002 473.56 1.52002 481.66C-0.30998 485.28 0.56002 488.86 1.84002 491.97C7.50002 505.77 20.63 515.49 25.62 529.52C31.5 546.06 24.08 558.66 17.83 573.78C15.03 580.57 13.59 588.7 17.36 595.01C24.32 606.64 41.3 603.54 49.26 613.93C58.73 626.3 42.42 645.91 28.84 660.99C15.26 676.07 3.96002 698.96 19.8 705.79C24.73 707.92 31.19 707.67 36.98 708.49C63 712.15 71.85 735.63 77.67 756.63C83.95 779.27 108.32 786.64 124.79 800.03C143.36 815.12 149.29 844.72 180.31 831.76C201.55 822.89 211.21 800.27 223.24 782.33C236.42 762.67 250.45 743.24 258.82 720.91C265.34 704.31 286.32 693.21 293.55 677Z" fill="#E3E5FC"/>
<path d="M178.63 834.46C177.98 834.46 177.4 834.01 177.26 833.35L106.59 502.19C106.43 501.43 106.91 500.68 107.67 500.52C108.43 500.35 109.17 500.84 109.34 501.6L180.01 832.76C180.17 833.52 179.69 834.27 178.93 834.43C178.83 834.45 178.73 834.46 178.63 834.46Z" fill="white"/>
<path d="M133.61 616.9C133.53 616.9 133.44 616.89 133.36 616.88C132.6 616.74 132.09 616.01 132.23 615.25L144.87 544.86C145.01 544.1 145.74 543.6 146.5 543.73C147.26 543.87 147.77 544.6 147.63 545.36L134.99 615.75C134.87 616.42 134.28 616.9 133.61 616.9Z" fill="white"/>
<path d="M158.68 740.93C158.24 740.93 157.8 740.72 157.53 740.33L119.16 685.17C118.72 684.53 118.87 683.66 119.51 683.21C120.15 682.77 121.02 682.92 121.47 683.56L159.84 738.72C160.28 739.36 160.13 740.23 159.49 740.68C159.23 740.85 158.95 740.93 158.68 740.93Z" fill="white"/>
<path d="M712.88 861.95C996.959 861.95 1227.25 855.212 1227.25 846.9C1227.25 838.588 996.959 831.85 712.88 831.85C428.801 831.85 198.51 838.588 198.51 846.9C198.51 855.212 428.801 861.95 712.88 861.95Z" fill="#E3E5FC"/>
<path d="M831.36 786.59C828.29 780.61 825.74 774.06 826.19 767.35C827.01 755.16 837.1 746.01 845.8 737.43C854.5 728.85 863.05 717.25 859.76 705.48C856.6 694.17 844.27 688.65 833.83 683.28C823.39 677.91 812.22 668.37 814.52 656.86C817.82 640.37 845.02 637.8 847.97 621.24C849.04 615.25 846.36 609.29 843.76 603.78C834.87 584.99 825.98 566.2 817.09 547.41C813.02 538.81 809.37 527.42 816.18 520.78C820.77 516.31 827.98 516.41 833.99 514.21C849.59 508.49 854.27 489.23 857.85 473C861.43 456.78 869.77 437.65 886.34 436.45C892.72 435.99 898.96 438.52 904.47 441.78C926.32 454.71 939.8 480.59 937.88 505.91C937.06 516.75 933.96 528.85 940.36 537.64C943.69 542.21 948.97 544.84 953.63 548.03C971.47 560.22 981.33 583.13 977.91 604.46C975.58 619.02 967.82 634.52 974.66 647.58C982.32 662.19 1004.25 664.68 1011.52 679.48C1017.51 691.66 1010.7 706.14 1002.84 717.21C994.98 728.28 985.47 739.77 985.81 753.34C985.98 760.36 988.86 767.04 989.62 774.02C991.57 791.82 979.62 808.31 965.75 819.64C947.84 834.28 920.67 849.81 897.03 841.97C869.97 833 844.34 811.87 831.36 786.59Z" fill="#A7ADFF"/>
<path d="M919.35 845.49C918.63 845.49 918.01 844.93 917.95 844.2L896.33 576.42C896.27 575.65 896.85 574.97 897.62 574.91C898.48 574.88 899.07 575.42 899.13 576.2L920.75 843.98C920.81 844.75 920.23 845.43 919.46 845.49C919.43 845.49 919.39 845.49 919.35 845.49Z" fill="white"/>
<path d="M904.04 655.76C903.73 655.76 903.42 655.66 903.16 655.45C902.55 654.97 902.46 654.08 902.94 653.48L940.92 606.08C941.41 605.47 942.29 605.38 942.9 605.86C943.51 606.34 943.6 607.23 943.12 607.83L905.14 655.23C904.86 655.58 904.45 655.76 904.04 655.76Z" fill="white"/>
<path d="M913.11 748.16C912.8 748.16 912.49 748.06 912.23 747.85C911.62 747.37 911.53 746.48 912.01 745.88L949.99 698.48C950.48 697.87 951.36 697.78 951.97 698.26C952.58 698.74 952.67 699.63 952.19 700.23L914.21 747.63C913.93 747.98 913.52 748.16 913.11 748.16Z" fill="white"/>
<path d="M908.54 711.6C908.21 711.6 907.89 711.49 907.62 711.26L872.14 680.71C871.55 680.2 871.49 679.32 871.99 678.73C872.5 678.14 873.38 678.07 873.97 678.58L909.45 709.13C910.04 709.64 910.1 710.52 909.6 711.11C909.33 711.43 908.94 711.6 908.54 711.6Z" fill="white"/>
<path d="M923.88 772.84C921.98 768.9 920.03 764.73 920.37 760.37C920.85 754.28 925.62 749.47 930.4 745.66C941.27 736.99 953.78 730.31 963.49 720.35C973.2 710.39 979.82 695.63 975.11 682.55C971.4 672.25 961.26 664.4 960.59 653.47C959.69 639 975.21 629.63 982.5 617.1C988.57 606.67 988.79 593.94 992.47 582.45C996.15 570.96 1006.25 559.39 1018.12 561.55C1031.18 563.92 1035.81 580.25 1035.97 593.53C1036.13 606.81 1035.41 622.23 1045.53 630.82C1049.03 633.79 1053.59 635.62 1056.3 639.33C1058.76 642.71 1059.26 647.09 1059.69 651.25C1062.05 674.41 1063.91 699.74 1050.87 719.02C1047.89 723.43 1044.1 727.59 1043.06 732.82C1040.5 745.75 1055.75 757.05 1053.66 770.07C1051.88 781.11 1039.1 786.26 1032.39 795.21C1024.77 805.37 1025.42 820.02 1017.69 830.09C1006.17 845.1 973.46 848.16 958.36 836.79C941.25 823.89 932.77 791.23 923.88 772.84Z" fill="#F44E4E"/>
<path d="M977.6 845.57C977.53 845.57 977.45 845.56 977.37 845.55C976.61 845.42 976.09 844.7 976.21 843.93L1010.1 638.82C1010.22 638.06 1010.88 637.52 1011.72 637.66C1012.48 637.79 1013 638.51 1012.88 639.28L978.99 844.39C978.87 845.08 978.27 845.57 977.6 845.57Z" fill="white"/>
<path d="M1001.2 711.04C1000.88 711.04 1000.55 710.93 1000.29 710.71C999.7 710.2 999.63 709.32 1000.13 708.73L1033.64 669.4C1034.14 668.81 1035.03 668.74 1035.62 669.24C1036.21 669.74 1036.28 670.63 1035.78 671.22L1002.27 710.55C1001.99 710.87 1001.59 711.04 1001.2 711.04Z" fill="white"/>
<path d="M987.17 787.64C986.66 787.64 986.17 787.36 985.92 786.88L966.26 748.62C965.91 747.93 966.18 747.08 966.87 746.73C967.57 746.37 968.4 746.65 968.77 747.34L988.43 785.6C988.78 786.29 988.51 787.14 987.82 787.49C987.61 787.59 987.39 787.64 987.17 787.64Z" fill="white"/>
<path d="M1088.71 801.79C1093.79 795.3 1103.91 791.17 1103.37 782.95C1102.91 775.97 1094.27 770.66 1095.96 763.87C1097.56 757.48 1106.29 756.84 1112.84 757.61C1114.13 753.19 1113.16 748.49 1112.71 743.91C1112.26 739.33 1112.52 734.23 1115.65 730.85C1118.78 727.47 1125.58 727.65 1127.04 732.01C1129.36 725.46 1131.68 718.92 1134.01 712.37C1134.96 709.68 1136.35 706.6 1139.14 706.02C1143.21 705.17 1145.96 710.53 1145.32 714.64C1144.68 718.75 1142.27 722.56 1142.42 726.72C1142.61 732 1147.64 736.6 1152.92 736.33C1147.49 740.56 1141.49 747.63 1145.28 753.37C1147.19 756.26 1151.45 758.66 1150.19 761.88C1148.94 765.09 1143.17 764.8 1142.46 768.18C1141.5 772.68 1151.07 774.77 1149.27 779.01C1143.37 778.08 1138.27 785.91 1141.51 790.93C1145.07 796.45 1153.8 795.63 1158.55 800.17C1161.96 803.43 1162.49 808.85 1161.09 813.35C1155.59 831.05 1134.89 852.32 1115.47 845.37C1100.04 839.83 1073.94 820.64 1088.71 801.79Z" fill="#FDC510"/>
<path d="M1120.87 847.99C1120.84 847.99 1120.8 847.99 1120.76 847.99C1119.99 847.93 1119.41 847.26 1119.46 846.48L1126.75 749.21C1126.8 748.44 1127.38 747.87 1128.26 747.91C1129.03 747.97 1129.61 748.64 1129.56 749.42L1122.27 846.69C1122.22 847.42 1121.6 847.99 1120.87 847.99Z" fill="white"/>
<path d="M1123.93 807.15C1123.62 807.15 1123.3 807.05 1123.04 806.83L1105.15 792.25C1104.55 791.76 1104.46 790.88 1104.95 790.27C1105.44 789.67 1106.33 789.58 1106.93 790.07L1124.82 804.65C1125.42 805.14 1125.51 806.02 1125.02 806.63C1124.74 806.97 1124.34 807.15 1123.93 807.15Z" fill="white"/>
<path d="M1123.3 834.07C1122.89 834.07 1122.48 833.89 1122.21 833.55C1121.72 832.95 1121.82 832.06 1122.42 831.57L1150.68 808.75C1151.28 808.27 1152.16 808.36 1152.66 808.96C1153.15 809.56 1153.05 810.45 1152.45 810.94L1124.19 833.76C1123.92 833.97 1123.61 834.07 1123.3 834.07Z" fill="white"/>
<path d="M171.75 637.35C169.88 630.84 164.03 625.39 159.68 619.53C155.34 613.68 152.51 606.35 156.9 600.52C158.95 597.81 162.31 595.78 165.14 593.46C178.06 582.87 178.78 566.96 174.69 553.1C170.6 539.24 162.47 526.05 160.01 511.98C157.74 498.95 162.44 483.46 178.64 477.72C190.53 473.51 205.73 476.25 215.1 483.05C224.47 489.86 228.36 500 227.39 509.62C227 513.47 226.01 517.68 228.87 520.93C234.51 527.36 249.21 524.45 257.23 529.35C264.09 533.54 263.09 541.42 260.2 547.6C257.31 553.77 253.09 560.24 255.49 566.53C258.46 574.29 270.78 579.14 272.03 587.15C272.54 590.43 271.04 593.8 272.03 597.02C274.8 606.09 295.48 610.81 291.16 619.56C287.81 626.35 272.48 625.52 267.75 631.86C262.72 638.59 273.83 646.37 272.44 653.97C271.97 656.56 270.06 658.87 268.2 661.1C255.53 676.27 242.85 691.43 230.18 706.6C227.89 709.34 225.56 712.12 222.4 714.35C202.94 728.1 173.31 719.25 170 701.59C168.42 693.18 166.35 683.25 165.73 674.74C164.83 662.12 175.34 649.86 171.75 637.35Z" fill="#A7ADFF"/>
<rect x="209.971" y="572.594" width="2.80999" height="268.649" transform="rotate(-3.43409 209.971 572.594)" fill="#4B369D"/>
<rect x="215.032" y="649.782" width="60.742" height="2.81009" transform="rotate(-50.1277 215.032 649.782)" fill="#4B369D"/>
<rect x="183.668" y="676.361" width="2.81008" height="46.8313" transform="rotate(-48.0886 183.668 676.361)" fill="#4B369D"/>
<path d="M59.65 827.75C56.11 823.56 53.07 818.72 52.28 813.3C52.09 811.99 52.07 810.54 52.86 809.48C53.54 808.56 54.7 808.12 55.82 807.89C63.76 806.19 71.21 812.01 76.95 817.76C87.08 827.92 96.12 839.16 103.87 851.23C99.23 844.01 96.79 830.16 97.89 821.67C97.93 821.34 98 820.97 98.26 820.76C98.53 820.54 98.91 820.56 99.24 820.62C101.68 821.09 103.22 823.46 104.39 825.66C108.01 832.46 111.17 840.32 113.27 847.95C111.95 843.16 115.86 837.39 119.4 834.53C125.74 829.43 124.39 836.55 123.01 840.73C121.66 844.83 112.7 860.89 106.31 857.3C105.14 856.64 104.85 853.06 103.89 851.9C102.22 849.9 99.89 849.24 97.49 848.5C91.05 846.5 84.34 845.67 78.27 842.53C71.19 838.85 64.8 833.84 59.65 827.75Z" fill="#A7ADFF"/>
<path d="M820.86 840.54C821.67 832.28 821.65 824.62 824.36 816.56C825.27 813.84 826.57 810.94 829.15 809.7C829.64 809.46 830.22 809.3 830.71 809.52C831.14 809.71 831.41 810.14 831.63 810.57C845.67 837.47 807.99 852.6 790.8 832.37C789.74 831.12 788.74 829.69 788.59 828.05C788.32 825.05 791.18 822.46 794.17 822.11C797.16 821.76 800.09 823.12 802.56 824.83C809.1 829.36 813.45 836.34 817.61 843.11C811.81 834.39 808.82 823.84 809.17 813.38C809.22 811.81 809.75 809.8 811.32 809.67C812.07 809.61 812.76 810.04 813.36 810.5C817.64 813.79 820.05 819.06 820.95 824.39C821.85 829.71 821.38 835.16 820.86 840.54Z" fill="#F44E4E"/>
<path d="M237.33 794.09C237.71 794.1 238.09 794.2 238.48 794.41C239.7 795.07 240.15 796.57 240.44 797.93C243.09 810.36 243.02 807.31 241.7 823.62C244.48 813.44 243.38 815.22 248.58 806.03C249.59 804.24 250.71 802.41 252.46 801.34C263.81 794.39 252.82 825.18 250.9 828.71C243.78 841.81 229.93 845.05 216.49 840.23C204.7 836 193.44 826.82 189.22 814.81C188.84 813.73 188.56 812.37 189.37 811.55C189.93 810.99 190.8 810.91 191.59 810.9C198.71 810.89 205.38 814.51 210.83 819.09C216.27 823.68 220.78 829.26 225.9 834.2C229.53 837.7 237.54 837.5 242.54 838.1C251.05 839.13 254.41 835.83 261.8 831.48C263.41 830.53 265.17 829.67 267.04 829.69C268.91 829.71 270.89 830.88 271.24 832.72C271.45 833.81 271.07 834.93 270.59 835.94C264.54 848.72 248.05 847 240.78 836.8C233.85 827.07 229.38 810.87 232.7 799.2C233.37 796.84 235.23 794.05 237.33 794.09Z" fill="#FDC510"/>
<path d="M1207.41 814.09C1207.67 814.1 1207.94 814.16 1208.21 814.31C1209.06 814.77 1209.37 815.82 1209.57 816.77C1211.42 825.45 1211.37 823.32 1210.45 834.7C1212.39 827.59 1211.62 828.84 1215.25 822.42C1215.95 821.17 1216.74 819.89 1217.96 819.14C1225.88 814.29 1218.21 835.77 1216.87 838.24C1211.9 847.38 1202.23 849.65 1192.86 846.28C1184.63 843.33 1176.77 836.92 1173.83 828.54C1173.56 827.78 1173.37 826.84 1173.94 826.26C1174.33 825.87 1174.94 825.81 1175.49 825.81C1180.46 825.8 1185.12 828.33 1188.91 831.53C1192.7 834.73 1195.85 838.63 1199.43 842.08C1201.96 844.52 1207.55 844.38 1211.04 844.8C1216.98 845.52 1219.32 843.21 1224.48 840.18C1225.6 839.52 1226.83 838.91 1228.14 838.93C1229.44 838.94 1230.82 839.76 1231.07 841.04C1231.22 841.8 1230.95 842.58 1230.62 843.28C1226.4 852.2 1214.89 851 1209.82 843.88C1204.98 837.09 1201.87 825.78 1204.18 817.64C1204.65 816.01 1205.95 814.06 1207.41 814.09Z" fill="#A7ADFF"/>
<path d="M435.84 336.98L550.74 208.68L534.5 246.59L442.6 336.98H435.84Z" fill="#4B369D"/>
<path d="M499.24 467.84L422.27 438.22C408.84 433.05 402.08 417.83 407.25 404.4L429.59 346.34C434.76 332.91 449.98 326.15 463.41 331.32L540.38 360.94C553.81 366.11 560.57 381.33 555.4 394.76L533.06 452.82C527.89 466.25 512.68 473.01 499.24 467.84Z" fill="#4B369D"/>
<path d="M728.77 253.91L774.15 177.59C774.15 177.59 791.85 167.5 788.06 181.08C784.27 194.66 744.22 260.48 744.22 260.48L728.77 253.91Z" fill="#4B369D"/>
<path d="M600.43 192.79L586.91 236.21L549.08 240.76C549.08 240.76 577.49 215.7 580.82 187.81C584.16 159.93 600.43 192.79 600.43 192.79Z" fill="#D4A79A"/>
<path d="M654.06 110.52C654.06 110.52 659.05 122.37 643.99 151C628.94 179.63 610.45 202.66 601.73 198.49C577.61 186.97 573.25 166.76 568.34 149.11C562.33 127.47 595.46 86.81 595.46 86.81L618.49 81.02L654.06 110.52Z" fill="#EAC2AB"/>
<path d="M574.76 123.86C574.76 123.86 572.32 141.48 572.29 162.78C572.29 163.58 572.22 164.24 571.71 164.85C570.45 166.34 560.96 150.44 560.25 149.21C555.59 141.19 548.47 131.39 551.29 121.68C552.08 118.97 553.5 116.42 553.75 113.62C554.21 108.34 550.14 104.99 549.2 100.25C548.32 95.85 549.5 90.83 550.86 86.67C553.45 78.77 558.71 70.12 565.93 65.65C571.62 62.13 576.44 63.85 582.13 61.87C585.13 60.83 586.48 57.45 588.5 55C591.61 51.24 596.67 49.52 601.55 49.39C607.57 49.22 616.26 50.42 621.39 53.9C627.92 58.33 628.57 70.04 634.74 73.31C635.8 73.87 637.02 74 638.21 74.11C649.72 75.23 660.64 74.71 669.86 82.59C684.42 95.03 674.44 139.03 652.96 126.58C650.5 125.15 648.41 123.17 646.06 121.56C634.76 113.79 620.41 126.81 612.8 107.16C611.44 103.65 587.95 102.4 587.64 111.99C587.25 124.51 574.76 123.86 574.76 123.86Z" fill="#4B369D"/>
<path d="M579.99 123.57C579.99 123.57 573.31 110.62 570.24 127.02C567.17 143.42 574.78 148.89 574.78 148.89L579.99 123.57Z" fill="#EAC2AB"/>
<path d="M409.44 730.69L375.16 778.5L358 768.68L396.73 720.92C396.73 720.93 406.87 724.94 409.44 730.69Z" fill="#D4A79A"/>
<path d="M417.91 837.73C417.05 838.75 410.46 837.2 409.46 837.05C399.14 835.52 383.2 833.69 375.31 826.29C367.63 819.08 363.71 808.2 357.24 799.97C352.68 794.18 346.33 790.08 340.56 785.56C334.2 780.57 353.64 750.98 361.29 757.52C367.48 762.82 362.21 773.85 379.98 775.2C395.2 776.36 382.17 796.24 397.54 811.86C411.12 825.68 427.28 826.6 417.91 837.73Z" fill="#F3AA02"/>
<path d="M515.82 532.6C504.19 574.07 510.95 574.75 482.31 607.1C468.34 622.88 390.98 688.04 376.58 703.46C356.04 725.45 377.46 735.56 392.7 742C402.67 746.21 408.62 768.12 423.77 751.99C425.27 750.4 451.35 716.73 459.18 701.98C468.14 685.09 519.53 638.89 537.24 622.65C579.4 584 558.09 565.43 583.89 514.83C593.71 495.56 591.53 475.05 594.44 452.89C596.22 439.33 575.53 375.86 546.75 387.08C528.84 394.07 535.68 430.4 536.44 444.73C536.97 454.64 538.4 465.57 535.94 475.16C530.89 494.84 521.32 513.01 515.82 532.6Z" fill="#4B369D"/>
<path d="M606.71 751.91L619.72 811.1L600.38 817.48L590.47 754.91C590.48 754.92 600.53 749.91 606.71 751.91Z" fill="#EAC2AB"/>
<path d="M698.92 834.43C698.92 834.43 684.45 839.37 656.71 841.43C628.97 843.49 598.01 844.52 592.39 840.4C586.76 836.28 583.14 801.29 592.39 801.29C601.64 801.29 605.23 814.67 621.54 802.73C635.51 792.5 646.67 811.79 670.99 816.93C695.31 822.07 705.15 824.13 698.92 834.43Z" fill="#FDC510"/>
<path d="M655.63 774.96C654.7 772.79 652.26 771.17 650.14 769.48C630.77 754.04 640.88 730.6 638.6 709.91C631.49 645.45 643.73 607.74 619.49 541.89C602.99 497.08 598.54 467.51 594.55 417.73C593.16 400.45 627.39 378.12 601.28 383.06C588.91 385.4 576.7 384.94 564.37 382.78C557.88 381.64 564.5 379.53 557.88 381.64C535.33 388.84 518.55 429.21 518.27 444.76C517.64 479.62 544.4 502.5 551.71 532.99C564.55 586.54 584.73 624.42 579.46 668.48C576.88 690.07 573.88 711.6 571 733.15C569.32 745.72 558.81 773.26 565.86 784.64C575.54 800.26 618.67 787.02 633.08 786.67C643.91 786.4 658.79 782.33 655.63 774.96Z" fill="#5A54FF"/>
<path d="M606.46 300.54C599.92 274 607.02 229.36 588.31 209.67C586.39 207.65 584.36 205.66 581.82 204.51C558.31 193.92 544.13 213.22 534.02 229.95C523.9 246.7 524.13 264.82 519.19 283.6C513.57 304.95 514.7 327.15 514.3 349.19C514.05 362.61 515.69 375.94 514.93 389.38C514.4 398.76 513.07 408.08 510.93 417.22C509.51 423.3 501.56 435.37 503.88 441.56C505.72 446.46 514.14 444.61 518.28 444.75C534.29 445.28 549.98 440.53 564.22 433.49C577.23 427.06 590.98 427.31 605.99 426.07C613.44 425.45 623.1 419.03 619.73 405.49C611.74 373.4 614.07 345.29 610.77 322.63C609.69 315.31 608.27 307.9 606.46 300.54Z" fill="#D7384E"/>
<path d="M564.74 243.97C564.74 243.97 598.21 320.34 614.49 330.63C630.77 340.92 644.87 339.45 673.57 320.66C702.28 301.87 728.09 279.43 730.82 276.87C733.55 274.31 757.09 271.51 759.15 261.35C761.21 251.19 770.16 218.32 761.54 224.77C752.92 231.22 745.49 252.5 738.31 252.87C731.13 253.24 741.3 230.89 734.77 234.49C728.24 238.09 727.78 244.01 725.43 249.04C723.08 254.07 726.18 259.74 711.91 272.24C697.64 284.74 650.97 317.37 637.54 314.94C624.11 312.5 574.91 240.13 572.9 234.59C570.88 229.06 564.74 243.97 564.74 243.97Z" fill="#EAC2AB"/>
<path d="M610.87 269.11C610.87 269.11 590.53 208.23 566.35 220.5C542.17 232.77 578.04 297.46 578.04 297.46L617.32 276.8L610.87 269.11Z" fill="#F44E4E"/>
<path d="M744.776 90.0318C747.256 94.0218 751.806 96.6418 755.666 94.7918C751.296 100.342 752.536 115.972 751.376 123.462C773.936 106.662 796.516 89.5018 823.096 90.5718C827.396 90.7418 832.146 91.0018 835.506 87.8018C837.086 86.2918 838.176 84.1618 839.076 81.9918C844.966 67.7718 844.026 51.0518 842.956 35.2418C842.766 32.5018 842.386 29.3518 840.426 27.9018C839.306 27.0718 837.926 27.0118 836.606 27.0018C813.926 26.8618 791.646 35.0118 768.926 33.1618C761.706 32.5718 748.376 24.7018 741.906 29.4318C736.176 33.6318 736.846 45.1218 737.266 51.8918C737.966 63.2518 738.956 80.6418 744.776 90.0318Z" fill="#E3E5FC"/>
<path fill-rule="evenodd" clip-rule="evenodd" d="M837.636 132.352L836.856 136.532L841.566 133.602C863.186 120.092 885.656 106.162 911.396 107.002C915.866 107.162 920.956 107.332 924.786 104.262C926.776 102.682 928.006 100.492 928.866 98.7617C935.156 86.0417 933.926 70.8217 932.926 58.6017C932.766 56.5817 932.456 52.8317 929.516 51.0117C928.006 50.0717 926.326 49.9917 924.726 49.9817C914.666 49.8676 904.886 51.1912 895.283 52.4908C894.787 52.5579 894.291 52.6249 893.796 52.6917L893.705 52.7041C881.733 54.3102 869.365 55.9696 857.166 55.1417C854.916 54.9917 851.856 54.1517 848.626 53.2617C841.776 51.3717 834.006 49.2317 829.036 52.2917C822.306 56.4317 823.086 67.1117 823.506 72.8517L823.536 73.2517C824.236 82.9417 825.306 97.5917 831.376 105.792C833.386 108.502 836.716 110.702 840.246 111.012C838.741 114.961 838.478 120.292 838.238 125.151L838.236 125.192C838.23 125.317 838.224 125.441 838.217 125.566C838.085 128.167 837.961 130.605 837.636 132.352ZM845.126 109.952L850.936 103.762L843.066 106.922C839.956 108.172 836.276 106.122 834.376 103.562C828.946 96.2317 827.926 82.2317 827.256 72.9717L827.226 72.5717C826.856 67.6217 826.186 58.4217 830.976 55.4817C834.543 53.2798 841.446 55.1777 847.539 56.8533L847.606 56.8717L847.697 56.8965C851.093 57.8273 854.289 58.7033 856.886 58.8817C869.496 59.7317 882.096 58.0417 894.276 56.4017L894.585 56.3603C904.447 55.0332 914.562 53.6723 924.686 53.7217C925.796 53.7317 926.846 53.7717 927.526 54.1917C928.696 54.9217 929.016 56.8817 929.176 58.9017L929.18 58.9452C930.129 70.7077 931.309 85.3262 925.486 97.1017C924.796 98.4817 923.836 100.212 922.426 101.332C919.672 103.527 915.543 103.392 911.272 103.253L911.246 103.252C885.356 102.392 863.186 115.692 841.766 129.052C841.846 127.882 841.906 126.652 841.966 125.382C842.246 119.712 842.596 112.652 845.126 109.952Z" fill="#E3E5FC"/>
<path d="M776.386 135.862C778.866 139.202 783.416 141.402 787.276 139.852C782.906 144.502 784.146 157.602 782.986 163.872C805.546 149.792 828.126 135.412 854.706 136.302C859.006 136.442 863.756 136.662 867.116 133.982C868.696 132.722 869.786 130.932 870.686 129.112C876.576 117.192 875.636 103.182 874.566 89.9318C874.376 87.6318 873.996 85.0018 872.036 83.7818C870.916 83.0918 869.536 83.0418 868.216 83.0318C845.536 82.9218 823.256 89.7518 800.536 88.1918C793.316 87.7018 779.986 81.1018 773.516 85.0618C767.786 88.5818 768.456 98.2118 768.876 103.892C769.576 113.422 770.566 127.992 776.386 135.862Z" fill="#A7ADFF"/>
<path d="M837.896 157.562C840.926 155.962 844.536 156.052 847.966 156.182C870.896 157.022 893.826 157.862 916.756 158.712C918.176 158.762 919.646 158.832 920.896 159.512C923.146 160.732 923.956 163.512 924.506 166.012C926.256 173.892 927.516 181.882 928.276 189.912C928.496 192.282 928.656 194.802 927.596 196.942C925.596 200.952 920.386 201.862 915.926 202.292C898.336 203.972 880.676 205.652 863.026 204.782C855.366 204.402 847.656 203.552 840.036 204.472C832.276 205.412 813.996 214.582 806.826 210.932C801.636 208.292 807.096 205.392 810.706 202.122C817.416 196.062 823.816 190.522 827.316 181.912C830.376 174.352 829.676 161.892 837.896 157.562Z" fill="#E3E5FC"/>
<path d="M856.096 187.972C859.117 187.972 861.566 185.523 861.566 182.502C861.566 179.481 859.117 177.032 856.096 177.032C853.075 177.032 850.626 179.481 850.626 182.502C850.626 185.523 853.075 187.972 856.096 187.972Z" fill="#4B369D"/>
<path d="M878.956 187.972C881.977 187.972 884.426 185.523 884.426 182.502C884.426 179.481 881.977 177.032 878.956 177.032C875.935 177.032 873.486 179.481 873.486 182.502C873.486 185.523 875.935 187.972 878.956 187.972Z" fill="#4B369D"/>
<path d="M902.866 187.972C905.887 187.972 908.336 185.523 908.336 182.502C908.336 179.481 905.887 177.032 902.866 177.032C899.845 177.032 897.396 179.481 897.396 182.502C897.396 185.523 899.845 187.972 902.866 187.972Z" fill="#4B369D"/>
<path d="M825.056 56.9618H755.696C754.576 56.9618 753.656 56.0418 753.656 54.9218V47.3718C753.656 46.2518 754.576 45.3318 755.696 45.3318H825.056C826.176 45.3318 827.096 46.2518 827.096 47.3718V54.9218C827.096 56.0418 826.176 56.9618 825.056 56.9618Z" fill="white"/>
<path d="M825.056 76.0718H785.356C784.236 76.0718 783.316 75.1518 783.316 74.0318V66.4818C783.316 65.3618 784.236 64.4418 785.356 64.4418H825.056C826.176 64.4418 827.096 65.3618 827.096 66.4818V74.0318C827.096 75.1518 826.176 76.0718 825.056 76.0718Z" fill="white"/>
<path d="M837.426 100.282H783.876C782.756 100.282 781.836 99.3617 781.836 98.2417V97.2017C781.836 96.0817 782.756 95.1617 783.876 95.1617H837.426C838.546 95.1617 839.466 96.0817 839.466 97.2017V98.2417C839.466 99.3617 838.546 100.282 837.426 100.282Z" fill="white"/>
<path d="M860.096 113.282H783.876C782.756 113.282 781.836 112.362 781.836 111.242V110.262C781.836 109.142 782.756 108.222 783.876 108.222H860.096C861.216 108.222 862.136 109.142 862.136 110.262V111.242C862.146 112.362 861.226 113.282 860.096 113.282Z" fill="white"/>
<path d="M860.096 125.652H783.876C782.756 125.652 781.836 124.732 781.836 123.612V122.632C781.836 121.512 782.756 120.592 783.876 120.592H860.096C861.216 120.592 862.136 121.512 862.136 122.632V123.612C862.146 124.732 861.226 125.652 860.096 125.652Z" fill="white"/>
</svg>
