<svg width="1302" height="947" viewBox="0 0 1302 947" fill="none" xmlns="http://www.w3.org/2000/svg">
<path d="M1302 0H0V947H1302V0Z" fill="white"/>
<path d="M768.72 946.16C984.205 946.16 1158.89 937.779 1158.89 927.44C1158.89 917.101 984.205 908.72 768.72 908.72C553.235 908.72 378.55 917.101 378.55 927.44C378.55 937.779 553.235 946.16 768.72 946.16Z" fill="#E3E5FC"/>
<path d="M1272.62 94.36C1272.62 69.63 1252.39 49.4 1227.66 49.4H311.38C286.65 49.4 266.42 69.63 266.42 94.36V196.6H1272.63V94.36H1272.62Z" fill="#A7ADFF"/>
<path d="M1272.62 196.6H266.41V807.64H1272.62V196.6Z" fill="#E3E5FC"/>
<path d="M453.91 389.82H364.32C351.27 389.82 340.59 379.14 340.59 366.09V285.06C340.59 272.01 351.27 261.33 364.32 261.33H453.91C466.96 261.33 477.64 272.01 477.64 285.06V366.09C477.64 379.14 466.96 389.82 453.91 389.82Z" fill="white"/>
<path d="M693.06 389.82H603.47C590.42 389.82 579.74 379.14 579.74 366.09V285.06C579.74 272.01 590.42 261.33 603.47 261.33H693.06C706.11 261.33 716.79 272.01 716.79 285.06V366.09C716.79 379.14 706.11 389.82 693.06 389.82Z" fill="white"/>
<path d="M932.21 389.82H842.62C829.57 389.82 818.89 379.14 818.89 366.09V285.06C818.89 272.01 829.57 261.33 842.62 261.33H932.21C945.26 261.33 955.94 272.01 955.94 285.06V366.09C955.94 379.14 945.26 389.82 932.21 389.82Z" fill="white"/>
<path d="M1171.36 389.82H1081.77C1068.72 389.82 1058.04 379.14 1058.04 366.09V285.06C1058.04 272.01 1068.72 261.33 1081.77 261.33H1171.36C1184.41 261.33 1195.09 272.01 1195.09 285.06V366.09C1195.09 379.14 1184.41 389.82 1171.36 389.82Z" fill="white"/>
<path d="M453.91 562.62H364.32C351.27 562.62 340.59 551.94 340.59 538.89V457.86C340.59 444.81 351.27 434.13 364.32 434.13H453.91C466.96 434.13 477.64 444.81 477.64 457.86V538.89C477.64 551.94 466.96 562.62 453.91 562.62Z" fill="white"/>
<path d="M693.06 562.62H603.47C590.42 562.62 579.74 551.94 579.74 538.89V457.86C579.74 444.81 590.42 434.13 603.47 434.13H693.06C706.11 434.13 716.79 444.81 716.79 457.86V538.89C716.79 551.94 706.11 562.62 693.06 562.62Z" fill="white"/>
<path d="M932.21 562.62H842.62C829.57 562.62 818.89 551.94 818.89 538.89V457.86C818.89 444.81 829.57 434.13 842.62 434.13H932.21C945.26 434.13 955.94 444.81 955.94 457.86V538.89C955.94 551.94 945.26 562.62 932.21 562.62Z" fill="white"/>
<path d="M1171.36 562.62H1081.77C1068.72 562.62 1058.04 551.94 1058.04 538.89V457.86C1058.04 444.81 1068.72 434.13 1081.77 434.13H1171.36C1184.41 434.13 1195.09 444.81 1195.09 457.86V538.89C1195.09 551.94 1184.41 562.62 1171.36 562.62Z" fill="white"/>
<path d="M453.91 735.42H364.32C351.27 735.42 340.59 724.74 340.59 711.69V630.66C340.59 617.61 351.27 606.93 364.32 606.93H453.91C466.96 606.93 477.64 617.61 477.64 630.66V711.69C477.64 724.74 466.96 735.42 453.91 735.42Z" fill="white"/>
<path d="M693.06 735.42H603.47C590.42 735.42 579.74 724.74 579.74 711.69V630.66C579.74 617.61 590.42 606.93 603.47 606.93H693.06C706.11 606.93 716.79 617.61 716.79 630.66V711.69C716.79 724.74 706.11 735.42 693.06 735.42Z" fill="white"/>
<path d="M932.21 735.42H842.62C829.57 735.42 818.89 724.74 818.89 711.69V630.66C818.89 617.61 829.57 606.93 842.62 606.93H932.21C945.26 606.93 955.94 617.61 955.94 630.66V711.69C955.94 724.74 945.26 735.42 932.21 735.42Z" fill="white"/>
<path d="M1171.36 735.42H1081.77C1068.72 735.42 1058.04 724.74 1058.04 711.69V630.66C1058.04 617.61 1068.72 606.93 1081.77 606.93H1171.36C1184.41 606.93 1195.09 617.61 1195.09 630.66V711.69C1195.09 724.74 1184.41 735.42 1171.36 735.42Z" fill="white"/>
<path d="M494.67 150.67C513.227 150.67 528.27 135.627 528.27 117.07C528.27 98.5133 513.227 83.47 494.67 83.47C476.114 83.47 461.07 98.5133 461.07 117.07C461.07 135.627 476.114 150.67 494.67 150.67Z" fill="#5A54FF"/>
<path d="M495.99 131.89C485.8 131.89 477.46 123.55 477.46 113.36V19.23C477.46 9.04001 485.8 0.700012 495.99 0.700012C506.18 0.700012 514.52 9.04001 514.52 19.23V113.36C514.52 123.55 506.18 131.89 495.99 131.89Z" fill="#F44E4E"/>
<path d="M677.27 150.67C695.827 150.67 710.87 135.627 710.87 117.07C710.87 98.5133 695.827 83.47 677.27 83.47C658.714 83.47 643.67 98.5133 643.67 117.07C643.67 135.627 658.714 150.67 677.27 150.67Z" fill="#5A54FF"/>
<path d="M678.591 131.89C668.401 131.89 660.061 123.55 660.061 113.36V19.23C660.061 9.04001 668.401 0.700012 678.591 0.700012C688.781 0.700012 697.121 9.04001 697.121 19.23V113.36C697.121 123.55 688.781 131.89 678.591 131.89Z" fill="#F44E4E"/>
<path d="M859.871 150.67C878.427 150.67 893.471 135.627 893.471 117.07C893.471 98.5133 878.427 83.47 859.871 83.47C841.314 83.47 826.271 98.5133 826.271 117.07C826.271 135.627 841.314 150.67 859.871 150.67Z" fill="#5A54FF"/>
<path d="M861.191 131.89C851.001 131.89 842.661 123.55 842.661 113.36V19.23C842.661 9.04001 851.001 0.700012 861.191 0.700012C871.381 0.700012 879.721 9.04001 879.721 19.23V113.36C879.721 123.55 871.381 131.89 861.191 131.89Z" fill="#F44E4E"/>
<path d="M1042.47 150.67C1061.03 150.67 1076.07 135.627 1076.07 117.07C1076.07 98.5133 1061.03 83.47 1042.47 83.47C1023.91 83.47 1008.87 98.5133 1008.87 117.07C1008.87 135.627 1023.91 150.67 1042.47 150.67Z" fill="#5A54FF"/>
<path d="M1043.79 131.89C1033.6 131.89 1025.26 123.55 1025.26 113.36V19.23C1025.26 9.04001 1033.6 0.700012 1043.79 0.700012C1053.98 0.700012 1062.32 9.04001 1062.32 19.23V113.36C1062.32 123.55 1053.98 131.89 1043.79 131.89Z" fill="#F44E4E"/>
<path d="M394.08 534.97H394.09L394.08 534.96V534.97Z" fill="#F44E4E"/>
<path d="M459.77 469.28C458.04 467.55 455.21 467.55 453.48 469.28L397.23 525.53L403.52 531.82L459.77 475.57C461.5 473.84 461.5 471.01 459.77 469.28Z" fill="#F44E4E"/>
<path d="M394.08 528.68L397.22 525.53L371.78 500.09C370.05 498.36 367.22 498.36 365.49 500.09C363.76 501.82 363.76 504.65 365.49 506.38L394.08 534.97C392.36 533.24 392.36 530.41 394.08 528.68Z" fill="#F44E4E"/>
<path d="M394.08 528.68C392.35 530.41 392.35 533.24 394.08 534.97C395.81 536.7 398.64 536.7 400.37 534.97L403.51 531.83L397.22 525.54L394.08 528.68Z" fill="#F44E4E"/>
<path fill-rule="evenodd" clip-rule="evenodd" d="M868.2 704.68C869.25 705.73 870.63 706.25 872.01 706.25C873.39 706.25 874.77 705.73 875.8 704.67L935.2 645.27C937.3 643.17 937.3 639.76 935.2 637.66C933.1 635.56 929.69 635.57 927.59 637.66L872 693.25L847.22 668.47C845.2 666.44 841.63 666.44 839.61 668.47C838.6 669.49 838.04 670.83 838.04 672.28C838.04 673.73 838.6 675.08 839.61 676.09L868.2 704.68ZM840.95 669.8C841.61 669.14 842.49 668.78 843.43 668.78C844.37 668.78 845.25 669.15 845.92 669.8L872.02 695.9L928.94 638.99C930.31 637.63 932.54 637.62 933.91 638.99C935.27 640.35 935.27 642.58 933.91 643.95L874.51 703.35C873.14 704.71 870.91 704.72 869.54 703.35L840.95 674.76C840.3 674.1 839.93 673.22 839.93 672.28C839.93 671.34 840.29 670.46 840.95 669.8Z" fill="#F44E4E"/>
<path d="M695.41 292.73C693.68 291 690.85 291 689.12 292.73L632.87 348.98L639.16 355.27L695.41 299.02C697.13 297.29 697.13 294.46 695.41 292.73Z" fill="#F44E4E"/>
<path d="M629.72 352.13L632.86 348.98L607.42 323.54C605.69 321.81 602.86 321.81 601.13 323.54C599.4 325.27 599.4 328.1 601.13 329.83L629.72 358.42C627.99 356.69 627.99 353.86 629.72 352.13Z" fill="#F44E4E"/>
<path d="M629.72 352.13C627.99 353.86 627.99 356.69 629.72 358.42C631.45 360.15 634.28 360.15 636.01 358.42L639.15 355.28L632.86 348.99L629.72 352.13Z" fill="#F44E4E"/>
<path d="M694.9 466.33H601.64C598.7 466.33 596.3 463.93 596.3 460.99C596.3 458.05 598.7 455.65 601.64 455.65H694.9C697.84 455.65 700.24 458.05 700.24 460.99C700.24 463.93 697.84 466.33 694.9 466.33Z" fill="#E3E5FC"/>
<path d="M694.9 492.27H601.64C598.7 492.27 596.3 489.87 596.3 486.93C596.3 483.99 598.7 481.59 601.64 481.59H694.9C697.84 481.59 700.24 483.99 700.24 486.93C700.24 489.87 697.84 492.27 694.9 492.27Z" fill="#E3E5FC"/>
<path d="M694.9 518.21H601.64C598.7 518.21 596.3 515.81 596.3 512.87C596.3 509.93 598.7 507.53 601.64 507.53H694.9C697.84 507.53 700.24 509.93 700.24 512.87C700.24 515.81 697.84 518.21 694.9 518.21Z" fill="#E3E5FC"/>
<path d="M694.9 544.15H601.64C598.7 544.15 596.3 541.75 596.3 538.81C596.3 535.87 598.7 533.47 601.64 533.47H694.9C697.84 533.47 700.24 535.87 700.24 538.81C700.24 541.75 697.84 544.15 694.9 544.15Z" fill="#E3E5FC"/>
<path d="M455.75 640.5H362.49C359.55 640.5 357.15 638.1 357.15 635.16C357.15 632.22 359.55 629.82 362.49 629.82H455.75C458.69 629.82 461.09 632.22 461.09 635.16C461.09 638.1 458.68 640.5 455.75 640.5Z" fill="#E3E5FC"/>
<path d="M455.75 666.44H362.49C359.55 666.44 357.15 664.04 357.15 661.1C357.15 658.16 359.55 655.76 362.49 655.76H455.75C458.69 655.76 461.09 658.16 461.09 661.1C461.09 664.04 458.68 666.44 455.75 666.44Z" fill="#E3E5FC"/>
<path d="M455.75 692.38H362.49C359.55 692.38 357.15 689.98 357.15 687.04C357.15 684.1 359.55 681.7 362.49 681.7H455.75C458.69 681.7 461.09 684.1 461.09 687.04C461.09 689.98 458.68 692.38 455.75 692.38Z" fill="#E3E5FC"/>
<path d="M455.75 718.33H362.49C359.55 718.33 357.15 715.93 357.15 712.99C357.15 710.05 359.55 707.65 362.49 707.65H455.75C458.69 707.65 461.09 710.05 461.09 712.99C461.09 715.92 458.68 718.33 455.75 718.33Z" fill="#E3E5FC"/>
<path d="M1174.67 292H1081.41C1078.47 292 1076.07 289.6 1076.07 286.66C1076.07 283.72 1078.47 281.32 1081.41 281.32H1174.67C1177.61 281.32 1180.01 283.72 1180.01 286.66C1180 289.6 1177.6 292 1174.67 292Z" fill="#E3E5FC"/>
<path d="M1174.67 317.94H1081.41C1078.47 317.94 1076.07 315.54 1076.07 312.6C1076.07 309.66 1078.47 307.26 1081.41 307.26H1174.67C1177.61 307.26 1180.01 309.66 1180.01 312.6C1180 315.54 1177.6 317.94 1174.67 317.94Z" fill="#E3E5FC"/>
<path d="M1174.67 343.88H1081.41C1078.47 343.88 1076.07 341.48 1076.07 338.54C1076.07 335.6 1078.47 333.2 1081.41 333.2H1174.67C1177.61 333.2 1180.01 335.6 1180.01 338.54C1180 341.48 1177.6 343.88 1174.67 343.88Z" fill="#E3E5FC"/>
<path d="M1174.67 369.82H1081.41C1078.47 369.82 1076.07 367.42 1076.07 364.48C1076.07 361.54 1078.47 359.14 1081.41 359.14H1174.67C1177.61 359.14 1180.01 361.54 1180.01 364.48C1180 367.42 1177.6 369.82 1174.67 369.82Z" fill="#E3E5FC"/>
<path d="M934.05 292H840.79C837.85 292 835.45 289.6 835.45 286.66C835.45 283.72 837.85 281.32 840.79 281.32H934.05C936.99 281.32 939.39 283.72 939.39 286.66C939.39 289.6 936.99 292 934.05 292Z" fill="#E3E5FC"/>
<path d="M934.05 317.94H840.79C837.85 317.94 835.45 315.54 835.45 312.6C835.45 309.66 837.85 307.26 840.79 307.26H934.05C936.99 307.26 939.39 309.66 939.39 312.6C939.39 315.54 936.99 317.94 934.05 317.94Z" fill="#E3E5FC"/>
<path d="M934.05 343.88H840.79C837.85 343.88 835.45 341.48 835.45 338.54C835.45 335.6 837.85 333.2 840.79 333.2H934.05C936.99 333.2 939.39 335.6 939.39 338.54C939.39 341.48 936.99 343.88 934.05 343.88Z" fill="#E3E5FC"/>
<path d="M934.05 369.82H840.79C837.85 369.82 835.45 367.42 835.45 364.48C835.45 361.54 837.85 359.14 840.79 359.14H934.05C936.99 359.14 939.39 361.54 939.39 364.48C939.39 367.42 936.99 369.82 934.05 369.82Z" fill="#E3E5FC"/>
<path d="M934.05 465.22H840.79C837.85 465.22 835.45 462.82 835.45 459.88C835.45 456.94 837.85 454.54 840.79 454.54H934.05C936.99 454.54 939.39 456.94 939.39 459.88C939.39 462.82 936.99 465.22 934.05 465.22Z" fill="#E3E5FC"/>
<path d="M934.05 491.16H840.79C837.85 491.16 835.45 488.76 835.45 485.82C835.45 482.88 837.85 480.48 840.79 480.48H934.05C936.99 480.48 939.39 482.88 939.39 485.82C939.39 488.76 936.99 491.16 934.05 491.16Z" fill="#E3E5FC"/>
<path d="M934.05 517.1H840.79C837.85 517.1 835.45 514.7 835.45 511.76C835.45 508.82 837.85 506.42 840.79 506.42H934.05C936.99 506.42 939.39 508.82 939.39 511.76C939.39 514.7 936.99 517.1 934.05 517.1Z" fill="#E3E5FC"/>
<path d="M934.05 543.04H840.79C837.85 543.04 835.45 540.64 835.45 537.7C835.45 534.76 837.85 532.36 840.79 532.36H934.05C936.99 532.36 939.39 534.76 939.39 537.7C939.39 540.64 936.99 543.04 934.05 543.04Z" fill="#E3E5FC"/>
<path d="M1174.67 464.8H1081.41C1078.47 464.8 1076.07 462.4 1076.07 459.46C1076.07 456.52 1078.47 454.12 1081.41 454.12H1174.67C1177.61 454.12 1180.01 456.52 1180.01 459.46C1180 462.4 1177.6 464.8 1174.67 464.8Z" fill="#E3E5FC"/>
<path d="M1174.67 490.74H1081.41C1078.47 490.74 1076.07 488.34 1076.07 485.4C1076.07 482.46 1078.47 480.06 1081.41 480.06H1174.67C1177.61 480.06 1180.01 482.46 1180.01 485.4C1180 488.34 1177.6 490.74 1174.67 490.74Z" fill="#E3E5FC"/>
<path d="M1174.67 516.68H1081.41C1078.47 516.68 1076.07 514.28 1076.07 511.34C1076.07 508.4 1078.47 506 1081.41 506H1174.67C1177.61 506 1180.01 508.4 1180.01 511.34C1180 514.28 1177.6 516.68 1174.67 516.68Z" fill="#E3E5FC"/>
<path d="M1174.67 542.62H1081.41C1078.47 542.62 1076.07 540.22 1076.07 537.28C1076.07 534.34 1078.47 531.94 1081.41 531.94H1174.67C1177.61 531.94 1180.01 534.34 1180.01 537.28C1180 540.22 1177.6 542.62 1174.67 542.62Z" fill="#E3E5FC"/>
<path d="M1174.67 637.6H1081.41C1078.47 637.6 1076.07 635.2 1076.07 632.26C1076.07 629.32 1078.47 626.92 1081.41 626.92H1174.67C1177.61 626.92 1180.01 629.32 1180.01 632.26C1180 635.2 1177.6 637.6 1174.67 637.6Z" fill="#E3E5FC"/>
<path d="M1174.67 663.54H1081.41C1078.47 663.54 1076.07 661.14 1076.07 658.2C1076.07 655.26 1078.47 652.86 1081.41 652.86H1174.67C1177.61 652.86 1180.01 655.26 1180.01 658.2C1180 661.14 1177.6 663.54 1174.67 663.54Z" fill="#E3E5FC"/>
<path d="M1174.67 689.48H1081.41C1078.47 689.48 1076.07 687.08 1076.07 684.14C1076.07 681.2 1078.47 678.8 1081.41 678.8H1174.67C1177.61 678.8 1180.01 681.2 1180.01 684.14C1180 687.08 1177.6 689.48 1174.67 689.48Z" fill="#E3E5FC"/>
<path d="M1174.67 715.42H1081.41C1078.47 715.42 1076.07 713.02 1076.07 710.08C1076.07 707.14 1078.47 704.74 1081.41 704.74H1174.67C1177.61 704.74 1180.01 707.14 1180.01 710.08C1180 713.02 1177.6 715.42 1174.67 715.42Z" fill="#E3E5FC"/>
<path d="M694.9 637.6H601.64C598.7 637.6 596.3 635.2 596.3 632.26C596.3 629.32 598.7 626.92 601.64 626.92H694.9C697.84 626.92 700.24 629.32 700.24 632.26C700.24 635.2 697.84 637.6 694.9 637.6Z" fill="#E3E5FC"/>
<path d="M694.9 663.54H601.64C598.7 663.54 596.3 661.14 596.3 658.2C596.3 655.26 598.7 652.86 601.64 652.86H694.9C697.84 652.86 700.24 655.26 700.24 658.2C700.24 661.14 697.84 663.54 694.9 663.54Z" fill="#E3E5FC"/>
<path d="M694.9 689.48H601.64C598.7 689.48 596.3 687.08 596.3 684.14C596.3 681.2 598.7 678.8 601.64 678.8H694.9C697.84 678.8 700.24 681.2 700.24 684.14C700.24 687.08 697.84 689.48 694.9 689.48Z" fill="#E3E5FC"/>
<path d="M694.9 715.42H601.64C598.7 715.42 596.3 713.02 596.3 710.08C596.3 707.14 598.7 704.74 601.64 704.74H694.9C697.84 704.74 700.24 707.14 700.24 710.08C700.24 713.02 697.84 715.42 694.9 715.42Z" fill="#E3E5FC"/>
<path d="M455.75 289.1H362.49C359.55 289.1 357.15 286.7 357.15 283.76C357.15 280.82 359.55 278.42 362.49 278.42H455.75C458.69 278.42 461.09 280.82 461.09 283.76C461.09 286.7 458.68 289.1 455.75 289.1Z" fill="#E3E5FC"/>
<path d="M455.75 315.04H362.49C359.55 315.04 357.15 312.64 357.15 309.7C357.15 306.76 359.55 304.36 362.49 304.36H455.75C458.69 304.36 461.09 306.76 461.09 309.7C461.09 312.64 458.68 315.04 455.75 315.04Z" fill="#E3E5FC"/>
<path d="M455.75 340.98H362.49C359.55 340.98 357.15 338.58 357.15 335.64C357.15 332.7 359.55 330.3 362.49 330.3H455.75C458.69 330.3 461.09 332.7 461.09 335.64C461.09 338.58 458.68 340.98 455.75 340.98Z" fill="#E3E5FC"/>
<path d="M455.75 366.92H362.49C359.55 366.92 357.15 364.52 357.15 361.58C357.15 358.64 359.55 356.24 362.49 356.24H455.75C458.69 356.24 461.09 358.64 461.09 361.58C461.09 364.52 458.68 366.92 455.75 366.92Z" fill="#E3E5FC"/>
<path d="M1077.38 539.44C1075.18 537.24 1071.58 537.24 1069.39 539.44L997.88 610.95L1005.87 618.94L1077.38 547.43C1079.58 545.23 1079.58 541.63 1077.38 539.44Z" fill="#F44E4E"/>
<path d="M993.89 614.94L997.89 610.94L965.55 578.6C963.35 576.4 959.75 576.4 957.56 578.6C955.36 580.8 955.36 584.4 957.56 586.59L993.9 622.93C991.69 620.73 991.69 617.14 993.89 614.94Z" fill="#F44E4E"/>
<path d="M993.89 614.94C991.69 617.14 991.69 620.74 993.89 622.93C996.09 625.13 999.69 625.13 1001.88 622.93L1005.88 618.93L997.89 610.94L993.89 614.94Z" fill="#F44E4E"/>
<path d="M328.37 706.94H163.08C143.13 706.94 126.81 690.62 126.81 670.67C126.81 650.72 143.13 634.4 163.08 634.4H328.37C348.32 634.4 364.64 650.72 364.64 670.67C364.64 690.62 348.32 706.94 328.37 706.94Z" fill="#A7ADFF"/>
<path fill-rule="evenodd" clip-rule="evenodd" d="M145.11 670.67C145.11 685.87 157.48 698.24 172.68 698.24C187.88 698.24 200.25 685.87 200.25 670.67C200.25 655.47 187.88 643.1 172.68 643.1C157.48 643.1 145.11 655.47 145.11 670.67ZM148.86 670.67C148.86 657.54 159.55 646.85 172.68 646.85C185.82 646.85 196.5 657.54 196.5 670.67C196.5 683.8 185.81 694.49 172.68 694.49C159.54 694.49 148.86 683.8 148.86 670.67Z" fill="white"/>
<path d="M173.82 683.7H170.07V690.88H173.82V683.7Z" fill="white"/>
<path d="M173.82 650.55H170.07V657.73H173.82V650.55Z" fill="white"/>
<path d="M186.739 656.31L171.427 669.252L173.848 672.116L189.16 659.174L186.739 656.31Z" fill="white"/>
<path d="M201.96 603.54H36.6699C16.7199 603.54 0.399902 587.22 0.399902 567.27C0.399902 547.32 16.7199 531 36.6699 531H201.96C221.91 531 238.23 547.32 238.23 567.27C238.23 587.21 221.91 603.54 201.96 603.54Z" fill="#E3E5FC"/>
<path d="M81.9303 546.83C81.0503 545.95 79.6203 545.95 78.7503 546.83L50.2803 575.3L53.4603 578.48L81.9303 550.01C82.8103 549.14 82.8103 547.71 81.9303 546.83Z" fill="#A7ADFF"/>
<path d="M48.6901 576.89L50.2801 575.3L37.4001 562.42C36.5201 561.54 35.0901 561.54 34.2201 562.42C33.3401 563.3 33.3401 564.73 34.2201 565.6L48.6901 580.07C47.8201 579.2 47.8201 577.77 48.6901 576.89Z" fill="#A7ADFF"/>
<path d="M48.6903 576.89C47.8103 577.77 47.8103 579.2 48.6903 580.07C49.5703 580.95 51.0003 580.95 51.8703 580.07L53.4603 578.48L50.2803 575.3L48.6903 576.89Z" fill="#A7ADFF"/>
<path d="M1170.96 638.25C1170.96 638.25 1147.33 679.91 1109.25 669.48C1071.17 659.05 1044.76 604.14 1033.39 610.25C1022.02 616.36 994.83 606.93 1025.22 598.41C1039.17 594.5 1041.26 595.09 1042.86 596.24C1063.91 611.35 1088.46 634.84 1101.32 645.86C1115.16 657.72 1132.44 649.18 1148.25 640.28C1164.06 631.39 1224.3 612.5 1170.96 638.25Z" fill="#EAC2AB"/>
<path d="M1196.55 560.25L1201.98 600.01C1211.58 602.83 1221.64 608.22 1231.75 608.21C1231.29 600.84 1224.07 592.4 1220.75 585.44C1216.73 577 1226.57 557.86 1227.02 548.39C1228.19 523.64 1196.55 560.25 1196.55 560.25Z" fill="#D4A79A"/>
<path d="M1187.75 500.27C1182.92 498.97 1169.11 504.15 1166.86 508.62C1161.41 519.43 1165.54 532.01 1164.24 544.71C1163.37 553.23 1169.45 570.66 1176.06 577.56C1185.84 587.79 1198.16 573.96 1205.55 565.42C1215.97 553.38 1220.51 537.37 1219.09 521.51C1218.58 515.81 1217.03 509.8 1212.77 505.98C1208.66 502.3 1202.87 501.35 1197.41 500.55C1194.01 500.06 1191.06 501.16 1187.75 500.27Z" fill="#EAC2AB"/>
<path d="M907.08 858.05L878.45 890.75L888.4 901.44L916.24 865.55C916.25 865.55 911.66 858.93 907.08 858.05Z" fill="#EAC2AB"/>
<path d="M814.91 871.61C814.91 871.61 823.32 880.81 842.34 893.15C861.36 905.49 883.08 918.35 888.72 917.62C894.36 916.88 910.65 893.29 904.05 889.66C897.44 886.04 889.63 894.19 882.65 879.27C876.67 866.49 861.14 875.9 841.74 870.05C822.34 864.2 814.49 861.82 814.91 871.61Z" fill="#FDC510"/>
<path d="M1004.16 753.7C1001.14 753.68 998.02 753.71 995.25 754.9C992.17 756.22 989.86 758.81 987.64 761.32C971.77 779.23 955.36 796.66 938.44 813.58C922 830.01 904.75 846.19 883.98 856.64C885.7 859.98 889.46 861.62 892.87 863.2C906.9 869.7 919.45 879.36 929.32 891.26C930.24 882.07 934.52 873.26 941.16 866.85C945.9 862.27 951.7 858.97 957.23 855.4C982.16 839.33 1002.65 817.24 1026.8 800.03C1027.88 799.26 1029 798.48 1030.28 798.12C1031.96 797.64 1033.75 797.92 1035.48 798.2C1073.33 804.26 1111.63 807.53 1149.96 807.99C1158.82 808.1 1169.88 806.57 1172.68 798.16C1184 764.18 1066.37 756.87 1051.19 755.67C1036.26 754.49 1019.06 751.74 1004.16 753.7Z" fill="#4B369D"/>
<path d="M1196.46 592.97C1180.92 598.85 1163.51 618.85 1157.94 627.09C1140.96 652.22 1151.41 675.46 1126.45 711.98C1124.05 715.5 1124.86 720.62 1126.42 724.58C1128.72 730.41 1135.12 733.3 1140.84 735.86C1163.3 745.92 1184.14 759.58 1202.32 776.18C1212.55 726.83 1219.03 676.7 1221.69 626.37C1222.12 618.28 1222.39 609.84 1219.08 602.36C1214.02 590.92 1205.56 589.52 1196.46 592.97Z" fill="#F44E4E"/>
<path d="M1225.68 615.85C1233.98 635.89 1227.7 659.38 1231.28 681.01C1234.86 702.64 1233.97 723.8 1239.01 745.19C1242.28 759.08 1245.02 773.07 1247.09 787.15C1247.24 788.2 1247.43 789.32 1248.2 790.11C1249.06 790.99 1250.44 791.24 1251.72 791.45C1263.66 793.38 1284.47 792.92 1291.7 802.97C1279.57 807.81 1264.12 806.1 1251.85 801.96C1254.04 804.19 1256.23 806.41 1258.42 808.64C1253.47 811.04 1247.29 808.87 1243.42 804.97C1239.55 801.06 1237.48 795.78 1235.51 790.64C1224.58 762.18 1212.78 734.12 1208.21 703.76C1205.63 686.59 1205.7 669.1 1201.97 652.1C1200.82 646.84 1199.3 641.59 1199.36 636.23C1199.47 627.62 1203.93 619.13 1211.23 613.65C1212.68 612.56 1214.29 611.56 1216.13 611.19C1219.49 610.5 1223.01 612.07 1225.32 614.39C1227.63 616.71 1228.95 619.69 1230.17 622.61" fill="#EAC2AB"/>
<path d="M1015.45 831.04L1010.88 874.26L1025.17 877.27L1027.26 831.89C1027.26 831.9 1019.69 829.13 1015.45 831.04Z" fill="#EAC2AB"/>
<path d="M956.29 897.18C956.29 897.18 967 899.55 986.93 898.81C1006.86 898.07 1029.01 896.35 1032.69 892.96C1036.37 889.58 1036.17 864.35 1029.58 865.08C1022.99 865.81 1021.49 875.64 1008.92 868.42C998.15 862.24 991.73 876.87 974.81 882.47C957.89 888.09 951.03 890.34 956.29 897.18Z" fill="#FDC510"/>
<path d="M1198.16 733.77C1203.76 736.02 1209.5 739.11 1212.29 744.47C1213.89 747.55 1214.35 751.09 1214.6 754.56C1215.6 768.07 1213.4 782.92 1203.67 792.35C1198.91 796.97 1192.77 799.87 1186.6 802.31C1171.99 808.08 1155.89 811.7 1140.57 808.21C1123.73 804.37 1109.92 792.45 1098.37 779.6C1088.56 768.68 1079.82 756.78 1072.33 744.15C1068.14 737.09 1063.63 729.19 1055.82 726.67C1049.68 745.28 1054.16 765.61 1052.04 785.09C1050.84 796.15 1047.5 806.89 1046.4 817.96C1045.3 829.03 1046.76 841.04 1053.94 849.54C1047.91 855.26 1038.27 852.96 1030.11 851.44C1019.93 849.55 1009.42 849.52 999.23 851.33C996.64 851.79 993.67 852.28 991.64 850.61C989.97 849.24 989.56 846.84 989.65 844.67C989.98 837.38 994.6 831.07 996.96 824.16C999.74 816 999.3 807.17 999.73 798.56C1001.14 769.86 1012.4 742.26 1013.28 713.54C1013.53 705.31 1012.93 696.98 1014.63 688.93C1016.33 680.88 1020.84 672.85 1028.37 669.53C1037.19 665.65 1049.05 666.22 1056.33 672.52C1060.81 676.4 1107.59 706.45 1147.89 725.64C1164.04 733.34 1181.58 727.1 1198.16 733.77Z" fill="#5A54FF"/>
<path d="M1292.41 680.05C1290.67 679.94 1289.04 679.59 1287.91 678.36C1285.95 676.22 1286.61 672.89 1286.25 670.01C1285.46 663.69 1280.3 659.1 1279.93 652.61C1279.5 645.05 1284.06 638.15 1281.67 630.45C1279.26 622.69 1272.71 615.2 1267.42 609.25C1263.07 604.35 1256.96 600.48 1254.12 594.39C1251.45 588.66 1253.55 582.25 1254.45 576.37C1255.43 569.92 1252.53 566.57 1251.96 560.44C1251.57 556.28 1253.82 552.39 1253.45 548.26C1254.02 545.75 1254.55 543.15 1254.94 540.63C1256.62 529.96 1246.05 524.16 1240.79 516.9C1235.29 509.3 1240.67 496.14 1234.31 487.16C1225.83 475.19 1207.92 473.53 1194.65 476.16C1184.88 478.1 1180.72 484.19 1173.65 490.23C1170.64 492.8 1166.34 493.31 1162.94 495.18C1157.94 497.92 1154.64 502.09 1152.28 507.47C1151.68 508.83 1151.36 510.35 1151.41 511.82C1151.46 513.23 1151.84 514.6 1152.67 515.74C1155.12 519.15 1160.24 519.24 1164.23 517.91C1180.32 512.55 1202.26 513.48 1202.74 535.89C1202.95 545.46 1198.73 554.56 1197.52 563.98C1196.17 574.46 1209.53 579 1213.64 586.8C1217.64 594.38 1220.37 604.28 1220.26 612.95C1220.26 612.95 1213.5 624.6 1214.16 637.24C1214.68 647.25 1220.98 647.22 1226.32 650.85C1229.6 653.08 1227.76 662.55 1228.58 665.88C1230.16 672.3 1235.45 676.55 1237.54 682.69C1239.79 689.32 1239.53 693.62 1246 698.07C1259.65 707.47 1278.02 705.19 1291.26 696.14C1294.33 694.04 1301.63 688.98 1301.2 684.42C1300.71 679.37 1296.3 680.31 1292.41 680.05Z" fill="#4B369D"/>
</svg>
