<?xml version="1.0" encoding="UTF-8"?>
<svg xmlns="http://www.w3.org/2000/svg" xmlns:xlink="http://www.w3.org/1999/xlink" width="500pt" height="500pt" viewBox="0 0 500 500" version="1.1">
<g id="surface1">
<path style=" stroke:none;fill-rule:nonzero;fill:#EE5E6A;fill-opacity:1;" d="M 39.683594 49.601563 C 28.753906 49.601563 19.839844 58.515625 19.839844 69.445313 L 19.839844 357.144531 C 19.839844 368.070313 28.753906 376.984375 39.683594 376.984375 L 188.492188 376.984375 L 188.492188 406.746094 L 158.730469 406.746094 C 142.335938 406.746094 128.96875 420.117188 128.96875 436.507813 L 128.96875 456.347656 L 367.0625 456.347656 L 367.0625 436.507813 C 367.0625 420.117188 353.695313 406.746094 337.300781 406.746094 L 307.539063 406.746094 L 307.539063 376.984375 L 456.347656 376.984375 C 467.277344 376.984375 476.191406 368.070313 476.191406 357.144531 L 476.191406 69.445313 C 476.191406 58.515625 467.277344 49.601563 456.347656 49.601563 Z M 39.683594 69.445313 L 456.347656 69.445313 L 456.347656 357.144531 L 39.683594 357.144531 L 39.683594 317.460938 L 456.347656 317.460938 L 456.347656 297.617188 L 39.683594 297.617188 Z M 406.746094 327.382813 L 406.746094 347.222656 L 426.585938 347.222656 L 426.585938 327.382813 Z M 208.332031 376.984375 L 287.699219 376.984375 L 287.699219 406.746094 L 208.332031 406.746094 Z M 158.730469 426.585938 L 337.300781 426.585938 C 342.765625 426.585938 347.222656 431.042969 347.222656 436.507813 L 148.808594 436.507813 C 148.808594 431.042969 153.265625 426.585938 158.730469 426.585938 Z "/>
</g>
</svg>
