<?xml version="1.0" encoding="UTF-8"?>
<svg xmlns="http://www.w3.org/2000/svg" xmlns:xlink="http://www.w3.org/1999/xlink" width="500pt" height="500pt" viewBox="0 0 500 500" version="1.1">
<g id="surface1">
<path style=" stroke:none;fill-rule:nonzero;fill:#EE5E6A;fill-opacity:1;" d="M 109.128906 29.761719 C 81.769531 29.761719 59.523438 52.003906 59.523438 79.363281 L 59.523438 168.652344 L 436.507813 168.652344 L 436.507813 79.363281 C 436.507813 52.003906 414.265625 29.761719 386.90625 29.761719 Z M 198.414063 89.285156 C 203.875 89.285156 208.332031 93.742188 208.332031 99.207031 C 208.332031 107.925781 213.101563 109.128906 218.253906 109.128906 L 277.777344 109.128906 C 282.660156 109.128906 287.699219 107.964844 287.699219 99.207031 C 287.699219 93.742188 292.117188 89.285156 297.617188 89.285156 C 303.121094 89.285156 307.539063 93.742188 307.539063 99.207031 C 307.539063 116.992188 295.566406 128.96875 277.777344 128.96875 L 218.253906 128.96875 C 200.195313 128.96875 188.492188 117.265625 188.492188 99.207031 C 188.492188 93.742188 192.949219 89.285156 198.414063 89.285156 Z M 59.523438 188.492188 L 59.523438 317.460938 L 436.507813 317.460938 L 436.507813 188.492188 Z M 198.414063 238.09375 C 203.875 238.09375 208.332031 242.550781 208.332031 248.015625 C 208.332031 256.734375 213.101563 257.9375 218.253906 257.9375 L 277.777344 257.9375 C 282.660156 257.9375 287.699219 256.773438 287.699219 248.015625 C 287.699219 242.550781 292.117188 238.09375 297.617188 238.09375 C 303.121094 238.09375 307.539063 242.550781 307.539063 248.015625 C 307.539063 265.804688 295.566406 277.777344 277.777344 277.777344 L 218.253906 277.777344 C 200.195313 277.777344 188.492188 266.074219 188.492188 248.015625 C 188.492188 242.550781 192.949219 238.09375 198.414063 238.09375 Z M 59.523438 337.300781 L 59.523438 426.585938 C 59.523438 453.945313 81.769531 476.191406 109.128906 476.191406 L 386.90625 476.191406 C 414.265625 476.191406 436.507813 453.945313 436.507813 426.585938 L 436.507813 337.300781 Z M 198.414063 386.90625 C 203.875 386.90625 208.332031 391.324219 208.332031 396.824219 C 208.332031 405.542969 213.101563 406.746094 218.253906 406.746094 L 277.777344 406.746094 C 282.660156 406.746094 287.699219 405.582031 287.699219 396.824219 C 287.699219 391.324219 292.117188 386.90625 297.617188 386.90625 C 303.121094 386.90625 307.539063 391.324219 307.539063 396.824219 C 307.539063 414.613281 295.566406 426.585938 277.777344 426.585938 L 218.253906 426.585938 C 200.195313 426.585938 188.492188 414.882813 188.492188 396.824219 C 188.492188 391.324219 192.949219 386.90625 198.414063 386.90625 Z "/>
</g>
</svg>
