<?xml version="1.0" encoding="UTF-8"?>
<svg xmlns="http://www.w3.org/2000/svg" xmlns:xlink="http://www.w3.org/1999/xlink" width="500pt" height="500pt" viewBox="0 0 500 500" version="1.1">
<g id="surface1">
<path style=" stroke:none;fill-rule:nonzero;fill:#EE5E6A;fill-opacity:1;" d="M 119.046875 19.839844 C 91.6875 19.839844 69.445313 42.085938 69.445313 69.445313 L 69.445313 406.746094 C 69.445313 412.25 73.902344 416.667969 79.363281 416.667969 L 416.667969 416.667969 C 422.167969 416.667969 426.585938 412.25 426.585938 406.746094 L 426.585938 69.445313 C 426.585938 42.085938 404.34375 19.839844 376.984375 19.839844 Z M 128.96875 69.445313 L 367.0625 69.445313 C 372.527344 69.445313 376.984375 73.902344 376.984375 79.363281 L 376.984375 277.777344 C 376.984375 283.242188 372.527344 287.699219 367.0625 287.699219 L 128.96875 287.699219 C 123.503906 287.699219 119.046875 283.242188 119.046875 277.777344 L 119.046875 79.363281 C 119.046875 73.902344 123.503906 69.445313 128.96875 69.445313 Z M 188.492188 119.046875 L 188.492188 148.808594 L 208.332031 148.808594 L 208.332031 119.046875 Z M 238.09375 119.046875 L 238.09375 178.570313 L 218.253906 178.570313 L 218.253906 198.414063 L 248.015625 198.414063 C 253.480469 198.414063 257.9375 193.957031 257.9375 188.492188 L 257.9375 119.046875 Z M 287.699219 119.046875 L 287.699219 148.808594 L 307.539063 148.808594 L 307.539063 119.046875 Z M 198.414063 218.253906 C 198.414063 234.570313 211.859375 248.015625 228.175781 248.015625 L 267.855469 248.015625 C 284.171875 248.015625 297.617188 234.570313 297.617188 218.253906 L 277.777344 218.253906 C 277.777344 223.875 273.476563 228.175781 267.855469 228.175781 L 228.175781 228.175781 C 222.554688 228.175781 218.253906 223.875 218.253906 218.253906 Z M 277.777344 337.300781 L 367.0625 337.300781 L 367.0625 357.144531 L 277.777344 357.144531 Z M 119.046875 347.222656 L 148.808594 347.222656 L 148.808594 367.0625 L 119.046875 367.0625 Z M 89.285156 436.507813 L 89.285156 466.269531 C 89.285156 471.773438 93.742188 476.191406 99.207031 476.191406 L 396.824219 476.191406 C 402.328125 476.191406 406.746094 471.773438 406.746094 466.269531 L 406.746094 436.507813 Z "/>
</g>
</svg>