<?xml version="1.0" encoding="UTF-8"?>
<svg xmlns="http://www.w3.org/2000/svg" xmlns:xlink="http://www.w3.org/1999/xlink" width="500pt" height="500pt" viewBox="0 0 500 500" version="1.1">
<g id="surface1">
<path style=" stroke:none;fill-rule:nonzero;fill:#EE5E6A;fill-opacity:1;" d="M 29.761719 29.761719 L 29.761719 86.183594 C 29.179688 88.085938 29.179688 90.175781 29.761719 92.074219 L 29.761719 317.460938 L 178.570313 317.460938 L 198.414063 297.617188 L 49.601563 297.617188 L 49.601563 105.40625 L 55.183594 108.195313 C 57.933594 109.515625 61.113281 109.515625 63.863281 108.195313 L 79.363281 100.445313 L 94.867188 108.195313 C 97.617188 109.515625 100.796875 109.515625 103.546875 108.195313 L 119.046875 100.445313 L 134.546875 108.195313 C 137.300781 109.515625 140.476563 109.515625 143.230469 108.195313 L 158.730469 100.445313 L 174.230469 108.195313 C 176.984375 109.515625 180.160156 109.515625 182.910156 108.195313 L 198.414063 100.445313 L 213.914063 108.195313 C 216.664063 109.515625 219.84375 109.515625 222.59375 108.195313 L 238.09375 100.445313 L 253.597656 108.195313 C 256.347656 109.515625 259.523438 109.515625 262.277344 108.195313 L 277.777344 100.445313 L 293.277344 108.195313 C 296.03125 109.515625 299.207031 109.515625 301.960938 108.195313 L 317.460938 100.445313 L 332.960938 108.195313 C 335.710938 109.515625 338.890625 109.515625 341.640625 108.195313 L 357.144531 100.445313 L 372.644531 108.195313 C 375.394531 109.515625 378.574219 109.515625 381.324219 108.195313 L 396.824219 100.445313 L 412.328125 108.195313 C 415.078125 109.515625 418.253906 109.515625 421.007813 108.195313 L 436.507813 100.445313 L 446.429688 105.40625 L 446.429688 297.617188 L 357.144531 297.617188 L 337.300781 317.460938 L 466.269531 317.460938 L 466.269531 100.445313 C 466.425781 99.398438 466.425781 98.390625 466.269531 97.347656 L 466.269531 29.761719 Z M 49.601563 49.601563 L 446.429688 49.601563 L 446.429688 83.085938 L 440.847656 80.296875 C 438.097656 78.976563 434.917969 78.976563 432.167969 80.296875 L 416.667969 88.046875 L 401.164063 80.296875 C 398.414063 78.976563 395.238281 78.976563 392.484375 80.296875 L 376.984375 88.046875 L 361.484375 80.296875 C 358.730469 78.976563 355.554688 78.976563 352.800781 80.296875 L 337.300781 88.046875 L 321.800781 80.296875 C 319.050781 78.976563 315.871094 78.976563 313.121094 80.296875 L 297.617188 88.046875 L 282.117188 80.296875 C 279.367188 78.976563 276.1875 78.976563 273.4375 80.296875 L 257.9375 88.046875 L 242.433594 80.296875 C 239.683594 78.976563 236.507813 78.976563 233.753906 80.296875 L 218.253906 88.046875 L 202.753906 80.296875 C 200 78.976563 196.824219 78.976563 194.074219 80.296875 L 178.570313 88.046875 L 163.070313 80.296875 C 160.320313 78.976563 157.140625 78.976563 154.390625 80.296875 L 138.890625 88.046875 L 123.386719 80.296875 C 120.636719 78.976563 117.457031 78.976563 114.707031 80.296875 L 99.207031 88.046875 L 83.707031 80.296875 C 80.953125 78.976563 77.777344 78.976563 75.023438 80.296875 L 59.523438 88.046875 L 49.601563 83.085938 Z M 86.496094 158.730469 C 81.03125 159.503906 77.195313 164.582031 77.96875 170.046875 C 78.746094 175.511719 83.820313 179.347656 89.285156 178.570313 L 248.015625 178.570313 C 251.582031 178.609375 254.914063 176.75 256.734375 173.648438 C 258.519531 170.550781 258.519531 166.75 256.734375 163.652344 C 254.914063 160.550781 251.582031 158.691406 248.015625 158.730469 L 89.285156 158.730469 C 88.976563 158.730469 88.664063 158.730469 88.355469 158.730469 C 88.046875 158.730469 87.734375 158.730469 87.425781 158.730469 C 87.117188 158.730469 86.804688 158.730469 86.496094 158.730469 Z M 314.671875 158.730469 C 309.207031 159.503906 305.371094 164.582031 306.144531 170.046875 C 306.917969 175.511719 311.996094 179.347656 317.460938 178.570313 L 406.746094 178.570313 C 410.3125 178.609375 413.644531 176.75 415.464844 173.648438 C 417.246094 170.550781 417.246094 166.75 415.464844 163.652344 C 413.644531 160.550781 410.3125 158.691406 406.746094 158.730469 L 317.460938 158.730469 C 317.148438 158.730469 316.839844 158.730469 316.53125 158.730469 C 316.21875 158.730469 315.910156 158.730469 315.601563 158.730469 C 315.289063 158.730469 314.980469 158.730469 314.671875 158.730469 Z M 86.496094 208.332031 C 81.03125 209.109375 77.195313 214.183594 77.96875 219.648438 C 78.746094 225.113281 83.820313 228.949219 89.285156 228.175781 L 248.015625 228.175781 C 251.582031 228.214844 254.914063 226.351563 256.734375 223.253906 C 258.519531 220.152344 258.519531 216.355469 256.734375 213.253906 C 254.914063 210.15625 251.582031 208.292969 248.015625 208.332031 L 89.285156 208.332031 C 88.976563 208.332031 88.664063 208.332031 88.355469 208.332031 C 88.046875 208.332031 87.734375 208.332031 87.425781 208.332031 C 87.117188 208.332031 86.804688 208.332031 86.496094 208.332031 Z M 345.980469 218.253906 C 343.773438 218.488281 341.679688 219.492188 340.089844 221.042969 L 333.582031 227.246094 C 331.796875 225.65625 329.472656 224.765625 327.070313 224.765625 C 326.761719 224.765625 326.449219 224.765625 326.140625 224.765625 C 325.171875 224.917969 324.242188 225.230469 323.351563 225.695313 L 276.847656 245.535156 C 275.683594 246.039063 274.640625 246.777344 273.746094 247.707031 L 189.421875 332.339844 L 189.113281 332.339844 C 188.6875 332.613281 188.257813 332.921875 187.871094 333.269531 C 187.289063 333.738281 186.785156 334.238281 186.320313 334.820313 C 185.972656 335.324219 185.664063 335.828125 185.390625 336.371094 L 107.578125 413.875 C 103.855469 417.636719 103.742188 423.601563 107.265625 427.515625 C 96.453125 438.679688 96.53125 456.8125 107.578125 467.820313 C 118.621094 478.863281 136.71875 478.941406 147.878906 468.128906 C 151.792969 471.65625 157.761719 471.539063 161.519531 467.820313 L 168.652344 460.691406 C 170.550781 461.96875 172.796875 463.246094 175.160156 464.410156 C 179.386719 466.464844 184.460938 468.402344 190.351563 468.441406 C 196.242188 468.480469 202.984375 466.039063 208.023438 461 C 215.65625 453.367188 225.269531 440.578125 234.375 428.136719 C 243.480469 415.699219 252.820313 402.871094 254.527344 401.164063 C 257.9375 397.753906 266.925781 397.445313 266.925781 397.445313 C 270.761719 398.335938 274.753906 396.863281 277.117188 393.726563 C 279.484375 390.585938 279.753906 386.324219 277.816406 382.875 C 275.878906 379.464844 272.082031 377.527344 268.167969 377.914063 C 268.167969 377.914063 267.042969 377.644531 265.378906 377.605469 C 261.617188 377.527344 254.410156 377.992188 247.394531 381.945313 L 327.691406 301.648438 C 328.621094 300.757813 329.355469 299.710938 329.859375 298.550781 L 349.703125 252.046875 C 351.136719 248.597656 350.554688 244.683594 348.152344 241.816406 L 354.351563 235.304688 C 357.570313 232.320313 358.421875 227.59375 356.484375 223.679688 C 354.585938 219.726563 350.285156 217.554688 345.980469 218.253906 Z M 324.902344 246.464844 L 325.210938 246.464844 L 325.519531 246.777344 C 326.296875 248.132813 327.34375 249.292969 328.621094 250.1875 L 328.929688 250.496094 L 312.191406 289.25 L 234.375 367.0625 L 208.332031 341.023438 L 286.148438 263.207031 Z M 194.074219 355.28125 L 220.113281 381.324219 L 164.621094 437.128906 L 164.308594 437.128906 C 160.824219 438.019531 158.070313 440.769531 157.179688 444.257813 L 154.699219 446.738281 C 154.390625 446.507813 154.078125 446.3125 153.769531 446.117188 L 152.21875 444.878906 L 130.828125 423.796875 C 130.828125 423.679688 130.828125 423.601563 130.828125 423.488281 L 130.519531 422.867188 C 130.128906 421.976563 129.589844 421.125 128.96875 420.386719 Z M 233.753906 395.273438 C 229.257813 401.089844 224.105469 408.375 218.253906 416.355469 C 209.226563 428.71875 199.304688 441.816406 194.074219 447.046875 C 192.675781 448.445313 191.902344 448.597656 190.351563 448.597656 C 188.800781 448.597656 186.320313 447.941406 183.839844 446.738281 C 183.492188 446.542969 183.261719 446.3125 182.910156 446.117188 Z M 121.21875 441.46875 L 133.929688 454.179688 C 130.363281 457.394531 124.976563 457.316406 121.527344 453.867188 C 118.078125 450.421875 117.960938 445.035156 121.21875 441.46875 Z "/>
</g>
</svg>
