<svg width="1358" height="921" viewBox="0 0 1358 921" fill="none" xmlns="http://www.w3.org/2000/svg">
<rect width="1358" height="921" fill="#F2F2F2"/>
<rect width="1358" height="921" fill="white"/>
<path d="M1117.19 733.87C1114.64 728.9 1112.51 723.46 1112.81 717.93C1113.34 707.87 1121.39 700.43 1128.33 693.44C1135.27 686.45 1142.05 676.96 1139.26 667.21C1136.59 657.84 1126.56 653.14 1118.06 648.6C1109.56 644.06 1100.43 636.05 1102.17 626.57C1104.66 612.99 1126.61 611.16 1128.81 597.52C1129.61 592.58 1127.38 587.63 1125.22 583.06C1117.83 567.45 1110.44 551.83 1103.05 536.22C1099.67 529.07 1096.59 519.63 1102.02 514.22C1105.68 510.58 1111.51 510.74 1116.34 508.99C1128.88 504.44 1132.45 488.58 1135.17 475.22C1137.89 461.86 1144.42 446.16 1157.79 445.35C1162.94 445.04 1168.01 447.2 1172.5 449.95C1190.3 460.87 1201.47 482.38 1200.19 503.27C1199.64 512.21 1197.27 522.17 1202.54 529.5C1205.28 533.31 1209.57 535.54 1213.38 538.22C1227.93 548.48 1236.14 567.5 1233.62 585.09C1231.9 597.09 1225.8 609.8 1231.47 620.66C1237.81 632.81 1255.56 635.1 1261.6 647.4C1266.57 657.53 1261.23 669.41 1255 678.46C1248.77 687.51 1241.21 696.9 1241.63 708.11C1241.85 713.91 1244.24 719.46 1244.94 725.23C1246.71 739.95 1237.23 753.44 1226.15 762.64C1211.84 774.53 1190.06 787.06 1170.87 780.32C1148.89 772.62 1127.95 754.89 1117.19 733.87Z" fill="#E3E5FC"/>
<path d="M1188.72 711.93C1188.02 711.93 1187.42 711.41 1187.33 710.71L1160.32 504.59C1160.22 503.82 1160.76 503.12 1161.53 503.01C1162.34 502.89 1163 503.45 1163.11 504.22L1190.12 710.34C1190.22 711.11 1189.68 711.81 1188.91 711.92C1188.84 711.93 1188.78 711.93 1188.72 711.93Z" fill="white"/>
<path d="M1172.32 576.34C1172.13 576.34 1171.94 576.3 1171.76 576.22C1171.05 575.91 1170.72 575.08 1171.04 574.37L1191.71 527.01C1192.02 526.29 1192.86 525.97 1193.56 526.28C1194.27 526.59 1194.6 527.42 1194.28 528.13L1173.61 575.49C1173.38 576.02 1172.86 576.34 1172.32 576.34Z" fill="white"/>
<path d="M1181.09 653.72C1180.72 653.72 1180.35 653.58 1180.08 653.29L1150.17 622.37C1149.63 621.81 1149.65 620.92 1150.2 620.38C1150.76 619.84 1151.65 619.85 1152.19 620.41L1182.1 651.33C1182.64 651.89 1182.62 652.78 1182.07 653.32C1181.8 653.59 1181.44 653.72 1181.09 653.72Z" fill="white"/>
<path d="M782.13 825C1067.27 825 1298.43 810.655 1298.43 792.96C1298.43 775.265 1067.27 760.92 782.13 760.92C496.985 760.92 265.83 775.265 265.83 792.96C265.83 810.655 496.985 825 782.13 825Z" fill="#E3E5FC"/>
<path d="M32.56 797.18C22.69 793.84 13.07 788.64 6.78996 780.32C0.519959 772 -1.74004 760.1 3.25996 750.95C8.32996 741.66 19.05 737.37 28.05 731.78C37.04 726.2 45.63 716.12 42.28 706.08C39.04 696.39 27.13 693.33 19.1 687.01C12.31 681.66 7.94996 672.63 9.95996 664.22C11.96 655.81 21.49 649.41 29.63 652.33C34.45 654.06 38.34 658.57 43.46 658.61C52.23 658.69 55.17 646.26 52.13 638.04C49.09 629.81 42.95 622.09 43.98 613.38C45.17 603.38 56.22 596.72 66.25 597.6C76.28 598.48 84.96 605.08 91.49 612.74C105.57 629.27 111.88 650.82 118.71 671.43C119.96 675.21 121.54 679.34 125.09 681.14C128.69 682.97 133.02 681.74 136.87 680.49C149.11 676.49 161.35 672.49 173.59 668.49C170.69 669.44 224.56 727.98 226.7 734.51C234.05 756.97 227.69 782.38 206.56 793.87C185.79 805.16 157.13 802.8 134.4 803.01C101.12 803.3 64.62 808.01 32.56 797.18Z" fill="#A7ADFF"/>
<path d="M150.11 723.56C146.12 712.5 143.65 699.77 149.05 689.33C156.42 675.07 191.45 659.94 174.33 639.64C166.01 629.78 147.68 629.35 144.29 616.9C140.82 604.19 156.27 593.86 160.87 583.42C166.37 570.94 166.31 557.27 163.36 544.2C156.94 515.83 135.94 492.74 121.71 468.15C118.98 463.43 116.35 458.08 117.49 452.76C118.8 446.65 124.92 442.52 131.1 441.54C141.85 439.84 161.17 444.24 167.88 453.71C174.59 463.18 172.72 477.87 181.85 485.03C190.83 492.07 204.33 487.06 215.03 491.02C242.05 501.03 226.96 551.71 252.94 564.15C257.1 566.14 261.82 566.75 266.02 568.66C275.85 573.13 281.12 583.71 285.65 593.51C290.9 604.88 296.28 617.04 294.6 629.45C291.43 652.95 263.89 671.82 270.73 694.53C272.76 701.27 277.83 707.6 276.51 714.52C274.05 727.43 253.39 727.82 247.74 739.68C241.62 752.55 255.35 766.09 248.24 779.26C242.54 789.83 222.71 795.98 211.43 794.16C182.67 789.54 158.91 747.96 150.11 723.56Z" fill="#E3E5FC"/>
<path d="M228.15 796.21C227.46 796.21 226.86 795.71 226.76 795.01L194.37 571.49C194.26 570.72 194.79 570.01 195.56 569.9C196.31 569.79 197.04 570.32 197.15 571.09L229.54 794.61C229.65 795.38 229.12 796.09 228.35 796.2C228.29 796.21 228.22 796.21 228.15 796.21Z" fill="white"/>
<path d="M208.23 649.22C208.06 649.22 207.89 649.19 207.72 649.12C207 648.84 206.64 648.02 206.92 647.3L226.64 596.82C226.92 596.1 227.75 595.74 228.46 596.02C229.18 596.3 229.54 597.12 229.26 597.84L209.54 648.32C209.32 648.88 208.79 649.22 208.23 649.22Z" fill="white"/>
<path d="M219.01 733.09C218.63 733.09 218.24 732.93 217.97 732.63L186.99 698.26C186.47 697.68 186.52 696.79 187.09 696.28C187.67 695.75 188.55 695.81 189.08 696.38L220.06 730.75C220.58 731.33 220.53 732.22 219.96 732.74C219.68 732.97 219.34 733.09 219.01 733.09Z" fill="white"/>
<path d="M124.21 920.18C123.52 920.18 122.92 919.68 122.82 918.98L90.43 695.46C90.32 694.69 90.85 693.98 91.62 693.87C92.37 693.77 93.1 694.29 93.21 695.06L125.6 918.58C125.71 919.35 125.18 920.06 124.41 920.17C124.35 920.17 124.28 920.18 124.21 920.18Z" fill="white"/>
<path d="M104.29 773.19C104.12 773.19 103.95 773.16 103.78 773.09C103.06 772.81 102.7 771.99 102.98 771.27L122.7 720.79C122.98 720.07 123.81 719.71 124.52 719.99C125.24 720.27 125.6 721.09 125.32 721.81L105.6 772.29C105.38 772.85 104.85 773.19 104.29 773.19Z" fill="white"/>
<path d="M115.07 857.05C114.69 857.05 114.3 856.89 114.03 856.59L83.0499 822.22C82.5299 821.64 82.5799 820.75 83.1499 820.24C83.7299 819.71 84.6099 819.77 85.1299 820.34L116.11 854.71C116.63 855.29 116.58 856.18 116.01 856.69C115.74 856.94 115.4 857.05 115.07 857.05Z" fill="white"/>
<path d="M1013.59 780.24C1014.4 771.98 1014.38 764.32 1017.09 756.26C1018 753.54 1019.3 750.64 1021.88 749.4C1022.37 749.16 1022.95 749 1023.44 749.21C1023.87 749.4 1024.14 749.83 1024.36 750.26C1038.4 777.16 1000.72 792.29 983.53 772.06C982.47 770.81 981.47 769.38 981.32 767.74C981.05 764.74 983.91 762.15 986.9 761.8C989.89 761.45 992.82 762.81 995.29 764.52C1001.83 769.05 1006.18 776.03 1010.34 782.8C1004.54 774.08 1001.55 763.53 1001.9 753.07C1001.95 751.5 1002.48 749.49 1004.05 749.36C1004.8 749.3 1005.49 749.73 1006.09 750.19C1010.37 753.48 1012.78 758.75 1013.68 764.08C1014.57 769.41 1014.11 774.86 1013.59 780.24Z" fill="#FDC510"/>
<path d="M467.87 724.61C468.25 724.62 468.63 724.72 469.02 724.93C470.24 725.59 470.69 727.09 470.98 728.45C473.63 740.88 473.56 737.83 472.24 754.14C475.02 743.96 473.92 745.74 479.12 736.55C480.13 734.76 481.25 732.93 483 731.86C494.35 724.91 483.36 755.7 481.44 759.23C474.32 772.33 460.47 775.57 447.03 770.75C435.24 766.52 423.98 757.34 419.76 745.33C419.38 744.25 419.1 742.89 419.91 742.07C420.47 741.51 421.34 741.43 422.13 741.42C429.25 741.41 435.92 745.03 441.37 749.61C446.81 754.2 451.32 759.78 456.44 764.72C460.07 768.22 468.08 768.02 473.08 768.62C481.59 769.65 484.95 766.35 492.34 762C493.95 761.05 495.71 760.19 497.58 760.21C499.45 760.23 501.43 761.4 501.78 763.24C501.99 764.33 501.61 765.45 501.13 766.46C495.08 779.24 478.59 777.52 471.32 767.32C464.39 757.59 459.92 741.39 463.24 729.72C463.91 727.36 465.77 724.56 467.87 724.61Z" fill="#FDC510"/>
<path d="M1333.37 748.19C1333.63 748.2 1333.9 748.26 1334.17 748.41C1335.02 748.87 1335.33 749.92 1335.53 750.87C1337.38 759.55 1337.33 757.42 1336.41 768.8C1338.35 761.69 1337.58 762.94 1341.21 756.52C1341.92 755.27 1342.7 753.99 1343.92 753.24C1351.84 748.39 1344.17 769.87 1342.83 772.34C1337.86 781.48 1328.19 783.75 1318.82 780.38C1310.59 777.43 1302.73 771.02 1299.79 762.64C1299.52 761.88 1299.33 760.94 1299.9 760.36C1300.29 759.97 1300.9 759.91 1301.45 759.91C1306.42 759.9 1311.08 762.43 1314.87 765.63C1318.66 768.83 1321.81 772.73 1325.39 776.18C1327.92 778.62 1333.51 778.48 1337 778.9C1342.94 779.62 1345.28 777.31 1350.44 774.28C1351.56 773.62 1352.79 773.01 1354.1 773.03C1355.4 773.04 1356.78 773.86 1357.03 775.14C1357.18 775.9 1356.91 776.68 1356.58 777.38C1352.36 786.3 1340.85 785.1 1335.78 777.98C1330.94 771.19 1327.83 759.88 1330.14 751.74C1330.61 750.11 1331.91 748.16 1333.37 748.19Z" fill="#A7ADFF"/>
<path d="M1177.56 717.39C1171.63 710.79 1165.81 704.16 1164.01 695.53C1163.08 691.06 1164.63 684.94 1169.18 684.68C1171.47 684.55 1173.48 686.06 1175.51 687.13C1183.32 691.27 1183.37 681.96 1181.22 677.03C1177.44 668.34 1171.66 659.67 1172.94 650.28C1173.02 649.69 1173.15 649.07 1173.56 648.63C1174.17 647.98 1175.19 647.98 1176.07 648.09C1182.08 648.88 1188.27 656.69 1194.46 654.14C1209.58 647.92 1196.5 613.19 1195.47 602.47C1195.27 600.42 1195.1 598.23 1196.09 596.43C1198.01 592.93 1203.26 592.86 1206.7 594.87C1211.98 597.96 1214.98 603.96 1220.74 606.4C1225.28 608.32 1230.45 606.12 1233.79 602.88C1243.84 593.14 1246.18 577.23 1254.1 565.93C1260.58 556.68 1278.6 542.61 1288.69 555.13C1293.31 560.86 1290.55 569.22 1288.66 576.33C1286.9 582.92 1285.46 590.67 1286.13 597.48C1286.63 602.47 1288.76 607.53 1292.85 610.43C1300.8 616.06 1315.74 616.24 1307.52 629.64C1305 633.74 1301.09 636.78 1298.08 640.54C1295.07 644.3 1292.97 649.49 1294.92 653.89C1298.47 661.92 1322.28 664.88 1313.16 677.49C1310.88 680.65 1307.25 682.49 1303.88 684.44C1287.58 693.86 1302.21 702.13 1299.06 715.08C1297.93 719.74 1294.4 723.53 1290.32 726.03C1283.76 730.05 1275.8 731.58 1268.78 734.64C1254.52 740.87 1241.77 750.14 1229.85 760.04C1221.11 767.3 1207.4 783.51 1194.51 775.68C1186.56 770.85 1191.52 757.29 1192.25 750.23C1193.68 736.5 1186.3 727.12 1177.56 717.39Z" fill="#FDC510"/>
<path d="M1200.18 785.77C1199.96 785.77 1199.74 785.73 1199.52 785.65C1198.55 785.29 1198.06 784.21 1198.43 783.24L1258.28 624.1C1258.64 623.13 1259.73 622.64 1260.69 623.01C1261.66 623.37 1262.15 624.45 1261.78 625.42L1201.93 784.56C1201.65 785.31 1200.94 785.77 1200.18 785.77Z" fill="white"/>
<path d="M1242.56 675.75C1241.96 675.75 1241.36 675.46 1241 674.92C1240.43 674.06 1240.66 672.9 1241.52 672.32L1270.64 652.9C1271.49 652.33 1272.66 652.55 1273.24 653.42C1273.81 654.28 1273.58 655.44 1272.72 656.02L1243.6 675.44C1243.28 675.65 1242.92 675.75 1242.56 675.75Z" fill="white"/>
<path d="M1221.46 733.67C1220.86 733.67 1220.26 733.38 1219.9 732.84C1219.33 731.98 1219.56 730.82 1220.42 730.24L1249.54 710.82C1250.39 710.25 1251.56 710.48 1252.14 711.34C1252.71 712.2 1252.48 713.36 1251.62 713.94L1222.5 733.36C1222.18 733.57 1221.82 733.67 1221.46 733.67Z" fill="white"/>
<path d="M1228.42 705.21C1227.81 705.21 1227.2 704.91 1226.84 704.35L1208.31 675.43C1207.75 674.56 1208.01 673.4 1208.88 672.84C1209.74 672.28 1210.91 672.53 1211.47 673.41L1230 702.33C1230.56 703.2 1230.3 704.36 1229.43 704.92C1229.12 705.12 1228.77 705.21 1228.42 705.21Z" fill="white"/>
<path d="M1134.26 777.87C1109.13 780.72 1084.82 777.91 1074.78 751.94C1071.17 742.59 1065.88 738.91 1056.48 736.26C1051.91 734.97 1047.12 733.49 1043.87 730.02C1040.63 726.55 1039.72 720.43 1043.24 717.24C1046.05 714.69 1050.32 714.94 1054.09 715.33C1060.34 715.99 1066.6 716.64 1072.85 717.3C1073.74 717.39 1074.68 717.48 1075.48 717.09C1078.14 715.8 1076.47 711.76 1074.5 709.56C1067.14 701.33 1059.56 693.29 1051.78 685.47C1048.9 682.58 1045.89 679.54 1044.71 675.63C1043.53 671.72 1044.92 666.7 1048.75 665.28C1054.06 663.3 1060.28 669.06 1065.29 666.42C1068.88 664.53 1069.32 659.52 1068.38 655.58C1067.44 651.64 1065.59 647.7 1066.3 643.71C1066.98 639.9 1070.19 636.68 1074 636C1077.8 635.31 1081.94 637.21 1083.9 640.54C1086.06 644.2 1085.92 649.43 1089.47 651.77C1092.45 653.73 1096.52 652.49 1099.48 650.51C1102.45 648.53 1105.03 645.83 1108.41 644.68C1114.14 642.72 1121.13 646.53 1122.6 652.4C1124.06 658.25 1120.69 664.99 1123.72 670.21C1126.54 675.07 1133.36 675.73 1138.87 674.62C1144.38 673.51 1149.92 671.22 1155.44 672.31C1157.34 672.68 1159.33 673.62 1160.1 675.39C1160.94 677.33 1160.07 679.57 1159.03 681.41C1155.88 686.94 1151.1 691.42 1148.1 697.03C1145.1 702.64 1144.39 710.37 1149 714.75C1151.42 717.06 1154.8 717.96 1157.86 719.33C1160.92 720.7 1164 723 1164.43 726.32C1165.16 731.93 1158.45 735.17 1154.99 739.64C1150.49 745.44 1151.6 753.59 1151.43 760.93C1150.94 781.82 1130.51 781.37 1114.98 777.55" fill="#F44E4E"/>
<path d="M1137.77 782.1C1137.01 782.1 1136.3 781.64 1136.02 780.89L1101.36 688.74C1100.99 687.77 1101.48 686.69 1102.45 686.33C1103.41 685.96 1104.5 686.45 1104.86 687.42L1139.52 779.57C1139.89 780.54 1139.4 781.62 1138.43 781.98C1138.21 782.06 1137.99 782.1 1137.77 782.1Z" fill="white"/>
<path d="M1113.23 718.39C1112.87 718.39 1112.51 718.29 1112.19 718.08L1095.33 706.84C1094.47 706.27 1094.24 705.1 1094.81 704.24C1095.38 703.38 1096.56 703.15 1097.41 703.72L1114.27 714.96C1115.13 715.53 1115.36 716.7 1114.79 717.56C1114.42 718.1 1113.83 718.39 1113.23 718.39Z" fill="white"/>
<path d="M1125.45 751.93C1125.09 751.93 1124.73 751.83 1124.41 751.62L1107.54 740.38C1106.68 739.81 1106.45 738.64 1107.02 737.78C1107.6 736.92 1108.76 736.69 1109.62 737.26L1126.49 748.5C1127.35 749.07 1127.58 750.24 1127.01 751.1C1126.64 751.64 1126.05 751.93 1125.45 751.93Z" fill="white"/>
<path d="M1121.41 735.45C1121.06 735.45 1120.71 735.35 1120.4 735.15C1119.53 734.59 1119.27 733.43 1119.83 732.56L1130.56 715.82C1131.12 714.94 1132.29 714.69 1133.15 715.25C1134.02 715.81 1134.28 716.97 1133.72 717.84L1122.99 734.58C1122.63 735.15 1122.03 735.45 1121.41 735.45Z" fill="white"/>
<path d="M628.21 95.63C704.27 97.8 780.9 99.93 855.95 87.4C868.27 85.34 883 80.58 885.43 68.32C888.43 53.19 869.18 42.79 853.81 44.05C838.44 45.31 823.3 52.59 808.16 49.64C796.65 47.4 787.15 39.59 777.98 32.28C763.75 20.94 748.19 9.84001 730.16 7.40001C712.13 4.96001 691.25 14.18 686.57 31.76C666.98 27.75 649.47 17.18 631.03 9.45001C612.59 1.72001 591.29 -3.14999 572.85 4.58001C554.41 12.31 542.5 36.96 553.94 53.36C543.48 38.35 474.68 72.8 464.34 79.84C448.23 90.82 439.27 96.11 458.65 100.53C477.46 104.82 504.86 94.64 524.14 93.56C558.61 91.66 593.71 94.65 628.21 95.63Z" fill="#E3E5FC"/>
<path d="M1183.19 314.19C1189.04 314.44 1196.83 313.15 1197.51 307.34C1197.99 303.23 1194.25 299.96 1190.81 297.64C1184.02 293.06 1175.85 288.79 1167.98 291.07C1164.95 291.95 1162.25 293.74 1159.2 294.55C1141.51 299.21 1127.87 269.7 1110.39 275.09C1107.53 275.97 1105.05 277.74 1102.36 279.05C1098.98 280.69 1095.29 281.6 1091.6 282.27C1079.43 284.47 1066.82 284.19 1054.76 281.48C1049.3 280.25 1043.85 278.51 1038.25 278.72C1023.61 279.26 997.15 292.97 1012.57 308.24C1023.57 319.12 1037.64 314.97 1050.44 312.08C1091.53 302.77 1141.24 312.41 1183.19 314.19Z" fill="#E3E5FC"/>
<path d="M234.08 329.07C223.58 328.93 209.2 324.55 210.89 314.18C212.33 305.38 224.57 303.66 233.05 306.41C241.53 309.16 250.44 314.19 258.79 311.05C262.13 309.79 265.01 307.29 268.54 306.72C272.21 306.13 276.01 307.74 279.64 306.92C284.92 305.73 288.03 299.87 293.21 298.29C301.85 295.66 311.47 306.04 319.31 301.54C324.21 298.73 324.7 292.05 325.83 286.52C330.17 265.33 354.68 250.74 375.37 257.02C402.37 265.21 416.38 300.66 444.46 303.38C456.11 304.51 504.2 295.33 495.41 323.6C489.99 341.04 433.75 331.67 419.35 331.48C357.6 330.68 295.84 329.88 234.08 329.07Z" fill="#E3E5FC"/>
<path d="M1112.54 204.03C1117.58 203.24 1124.15 200.09 1122.62 195.23C1122.15 193.72 1120.91 192.57 1119.63 191.63C1101.46 178.35 1075.7 196.77 1053.79 191.65C1047.2 190.11 1041.27 186.47 1034.77 184.6C1031.01 183.52 1027.08 183.05 1023.43 181.62C1011.27 176.87 1005.13 162.94 993.8 156.44C979.38 148.17 958.3 156.31 953.17 172.11C950.37 180.73 950.99 191.83 943.31 196.64C933.89 202.54 917.42 193.99 914.08 207.9C941.13 219.22 967.94 208.56 995.64 209.13C1035.06 209.95 1073.41 210.13 1112.54 204.03Z" fill="#E3E5FC"/>
<path d="M728.92 234.52C732.91 233.9 738.11 231.4 736.91 227.55C736.53 226.35 735.56 225.44 734.54 224.7C720.15 214.18 699.75 228.77 682.39 224.72C677.17 223.5 672.48 220.61 667.32 219.14C664.34 218.29 661.23 217.91 658.34 216.78C648.71 213.02 643.85 201.99 634.87 196.84C623.45 190.29 606.76 196.73 602.7 209.25C600.48 216.08 600.97 224.87 594.89 228.68C587.43 233.35 574.39 226.58 571.74 237.59C593.16 246.56 614.4 238.12 636.33 238.57C667.56 239.21 697.94 239.35 728.92 234.52Z" fill="#E3E5FC"/>
<path d="M371.67 411.35C373.78 411.02 376.53 409.7 375.89 407.66C375.69 407.03 375.17 406.54 374.64 406.15C367.03 400.59 356.24 408.3 347.06 406.16C344.3 405.51 341.82 403.99 339.09 403.21C337.52 402.76 335.87 402.56 334.34 401.96C329.25 399.97 326.68 394.14 321.93 391.42C315.89 387.96 307.06 391.36 304.92 397.98C303.75 401.59 304.01 406.24 300.79 408.26C296.85 410.73 289.95 407.15 288.55 412.97C299.88 417.71 311.11 413.25 322.71 413.49C339.22 413.83 355.28 413.9 371.67 411.35Z" fill="#E3E5FC"/>
<path d="M195.79 182.12C191.8 181.5 186.6 179 187.8 175.15C188.18 173.95 189.15 173.04 190.17 172.3C204.56 161.78 224.96 176.37 242.32 172.32C247.54 171.1 252.23 168.21 257.39 166.74C260.37 165.89 263.48 165.51 266.37 164.38C276 160.62 280.86 149.59 289.84 144.44C301.26 137.89 317.95 144.33 322.01 156.85C324.23 163.68 323.74 172.47 329.82 176.28C337.28 180.95 350.32 174.18 352.97 185.19C331.55 194.16 310.31 185.72 288.38 186.17C257.15 186.81 226.78 186.96 195.79 182.12Z" fill="#E3E5FC"/>
<path d="M405.84 746.09C406.63 745.38 407.31 744.56 407.84 743.58C412.54 734.81 401.71 723.44 399.12 715.71C395.3 704.31 396.93 690.06 399.94 678.6C402.34 669.45 408.65 662.68 411.81 653.87C416.73 640.15 402.3 620.38 391.34 613.32C366.76 597.49 373.99 636.95 363.64 643.52C360.44 645.55 356.34 645.14 352.59 645.76C339.03 648.05 348.34 662.15 344.26 670.34C342.77 673.33 339.77 675.21 337.45 677.63C326.22 689.29 352.5 695.06 328.71 705.5C322.6 708.18 316.12 713.51 319.94 717.7C321.13 719 323.1 719.8 324.72 720.83C332.02 725.45 331.5 733.68 330.4 740.76C329.22 748.39 335.52 753.9 338.65 760.14C342.17 767.17 339.95 776.84 350.99 777.16C358.55 777.37 364.51 771.9 370.54 768.16C377.15 764.05 383.98 760.13 389.51 754.57C393.69 750.45 401.48 749.96 405.84 746.09Z" fill="#A7ADFF"/>
<path d="M349.73 784.08C349.61 784.08 349.49 784.07 349.36 784.03C348.61 783.83 348.17 783.06 348.37 782.31L380.27 663.85C380.47 663.1 381.25 662.66 381.99 662.86C382.74 663.06 383.18 663.83 382.98 664.58L351.08 783.04C350.91 783.66 350.35 784.08 349.73 784.08Z" fill="white"/>
<path d="M371.32 701.8C370.7 701.8 370.14 701.39 369.96 700.77L363.79 678.18C363.59 677.43 364.03 676.66 364.77 676.45C365.53 676.25 366.29 676.69 366.5 677.43L372.67 700.02C372.87 700.77 372.43 701.54 371.69 701.75C371.57 701.79 371.44 701.8 371.32 701.8Z" fill="white"/>
<path d="M359.39 744.67C358.77 744.67 358.2 744.26 358.03 743.63L351.86 721.05C351.66 720.3 352.1 719.53 352.85 719.32C353.59 719.12 354.37 719.56 354.58 720.31L360.75 742.89C360.95 743.64 360.51 744.41 359.76 744.62C359.64 744.65 359.52 744.67 359.39 744.67Z" fill="white"/>
<path d="M366.82 724.87C366.32 724.87 365.84 724.6 365.59 724.14C365.22 723.46 365.47 722.6 366.15 722.23L385.51 711.66C386.2 711.29 387.05 711.54 387.42 712.22C387.79 712.9 387.54 713.76 386.86 714.13L367.5 724.7C367.28 724.82 367.05 724.87 366.82 724.87Z" fill="white"/>
<path d="M561.87 430.5L572.94 428.19L565.09 437.24L561.87 430.5Z" fill="#4B369D"/>
<path d="M519.98 460.53C516.91 464.25 513.75 468.68 509.93 471.98C506.14 475.25 499.04 475.9 496.15 479.44C505.02 489.12 526.91 482.25 536.48 477.23C549.25 470.54 559.64 459.05 564.16 445.28C566.57 437.93 566.95 428.72 561.14 423.61C558.32 421.13 554.54 420.11 550.87 419.29C545.13 418.01 538.07 416.63 532.39 418.93C523.75 422.43 533.18 421.91 535.11 425.88C537.39 430.57 532.65 439.5 530.6 443.5C527.54 449.45 524.27 455.35 519.98 460.53Z" fill="#A7ADFF"/>
<path d="M553.82 430.5C555.096 430.5 556.13 429.466 556.13 428.19C556.13 426.914 555.096 425.88 553.82 425.88C552.544 425.88 551.51 426.914 551.51 428.19C551.51 429.466 552.544 430.5 553.82 430.5Z" fill="#4B369D"/>
<path d="M515.14 431.96C509.19 429.8 502.52 428.62 498.01 424.17C495.53 421.72 493.46 418.17 489.99 417.88C489.46 417.83 488.88 417.89 488.49 418.26C488.01 418.72 488.01 419.47 488.04 420.13C488.24 424.09 488.46 428.15 490.03 431.79C491.6 435.43 494.84 438.62 498.79 438.96C499.27 439 499.79 439.01 500.2 439.26C501.39 439.99 500.74 441.9 499.67 442.81C498.6 443.72 497.15 444.43 496.85 445.79C496.53 447.23 497.79 448.64 499.21 449.04C500.63 449.44 502.14 449.09 503.58 448.74C503.05 451.26 502.94 454.63 505.32 455.61C507.39 456.47 510.22 454.79 511.82 456.35C512.42 456.93 512.62 457.8 512.95 458.56C514.04 461.04 516.72 462.55 519.42 462.82C522.11 463.09 524.81 462.29 527.28 461.19C533.65 458.36 540.65 452.07 535.55 445.53C530.76 439.39 522.32 434.56 515.14 431.96Z" fill="#978CFF"/>
<path d="M875.83 367.51L867.61 365.8L873.44 372.51L875.83 367.51Z" fill="#4B369D"/>
<path d="M906.91 389.79C909.19 392.55 911.53 395.84 914.36 398.29C917.17 400.72 922.44 401.2 924.59 403.82C918.01 411.01 901.77 405.91 894.66 402.18C885.19 397.21 877.48 388.69 874.12 378.47C872.33 373.02 872.05 366.18 876.36 362.39C878.45 360.55 881.26 359.8 883.98 359.19C888.24 358.24 893.48 357.21 897.69 358.92C904.1 361.52 897.11 361.13 895.67 364.08C893.98 367.56 897.49 374.19 899.02 377.15C901.3 381.57 903.73 385.95 906.91 389.79Z" fill="#A7ADFF"/>
<path d="M881.8 367.51C882.744 367.51 883.51 366.744 883.51 365.8C883.51 364.856 882.744 364.09 881.8 364.09C880.855 364.09 880.09 364.856 880.09 365.8C880.09 366.744 880.855 367.51 881.8 367.51Z" fill="#4B369D"/>
<path d="M910.5 368.6C914.92 367 919.87 366.12 923.21 362.82C925.05 361 926.58 358.37 929.16 358.15C929.55 358.12 929.99 358.16 930.27 358.43C930.62 358.77 930.63 359.33 930.6 359.82C930.45 362.76 930.29 365.77 929.12 368.47C927.95 371.17 925.55 373.54 922.62 373.79C922.26 373.82 921.88 373.83 921.57 374.02C920.68 374.56 921.17 375.98 921.97 376.65C922.76 377.32 923.84 377.85 924.06 378.86C924.3 379.93 923.37 380.98 922.31 381.27C921.25 381.56 920.13 381.31 919.07 381.05C919.46 382.92 919.55 385.42 917.78 386.15C916.24 386.79 914.15 385.54 912.95 386.7C912.51 387.13 912.36 387.77 912.11 388.34C911.3 390.18 909.31 391.3 907.31 391.5C905.31 391.7 903.31 391.11 901.48 390.29C896.75 388.19 891.56 383.52 895.35 378.67C898.91 374.11 905.17 370.53 910.5 368.6Z" fill="#978CFF"/>
<path d="M943.56 483.16L931.16 485.26L942.96 491.46L943.56 483.16Z" fill="#4B369D"/>
<path d="M999.1 497.27C1003.78 499.87 1008.85 503.18 1014.14 505.05C1019.39 506.9 1027.01 504.69 1031.43 507.18C1026.18 520.8 1000.72 522.56 988.78 521.25C972.85 519.5 957.43 511.82 947.16 499.39C941.68 492.76 937.55 483.37 941.5 475.73C943.42 472.02 946.92 469.43 950.38 467.1C955.8 463.44 962.55 459.15 969.37 459.23C979.74 459.35 969.76 462.63 969.37 467.53C968.91 473.31 977.44 480.64 981.19 483.94C986.79 488.87 992.57 493.64 999.1 497.27Z" fill="#A7ADFF"/>
<path d="M950.96 480.08C952.38 480.08 953.53 478.929 953.53 477.51C953.53 476.091 952.38 474.94 950.96 474.94C949.541 474.94 948.39 476.091 948.39 477.51C948.39 478.929 949.541 480.08 950.96 480.08Z" fill="#4B369D"/>
<path d="M992.54 465.73C997.83 461.08 1004.26 457.15 1007.11 450.72C1008.68 447.18 1009.39 442.67 1012.86 440.95C1013.39 440.69 1014.02 440.51 1014.57 440.74C1015.25 441.02 1015.55 441.8 1015.79 442.49C1017.19 446.67 1018.61 450.96 1018.46 455.36C1018.31 459.77 1016.24 464.38 1012.3 466.34C1011.82 466.58 1011.29 466.8 1010.96 467.23C1010.02 468.47 1011.48 470.18 1012.95 470.68C1014.42 471.18 1016.21 471.33 1017.08 472.62C1018 473.98 1017.27 475.95 1015.95 476.94C1014.64 477.93 1012.93 478.18 1011.3 478.41C1012.87 480.81 1014.35 484.24 1012.29 486.23C1010.49 487.96 1006.89 487.37 1005.86 489.64C1005.48 490.49 1005.62 491.46 1005.58 492.39C1005.46 495.4 1003.29 498.06 1000.61 499.43C997.93 500.8 994.82 501.07 991.81 500.93C984.06 500.58 974.27 496.91 976.9 488.07C979.38 479.76 986.15 471.34 992.54 465.73Z" fill="#978CFF"/>
<path d="M734.94 440.18L736.17 504.28L784.32 529.64L799.47 500.31L817.2 445.84L808.17 426.13L734.94 440.18Z" fill="#D4A79A"/>
<path d="M743.67 778.19C741.58 777.07 739.91 778.51 735.75 779.78C726.16 782.71 716.29 784.71 706.32 785.73C702.56 786.12 698.46 786.5 695.71 789.09C693.01 791.63 692.36 795.58 691.21 799.1C686.6 813.19 673.06 822.02 663.28 833.18C662.38 834.2 661.47 835.61 662.11 836.81C662.56 837.66 663.61 837.98 664.57 838.12C670.33 838.97 676.02 836.38 681.09 833.5C688.8 829.13 696.04 823.95 702.67 818.08C707.02 814.22 711.22 809.98 716.56 807.67C719.31 806.48 722.26 805.84 725.16 805.1C734.87 802.61 744.26 798.84 752.99 793.92C750.86 789.76 749 783.64 745.94 780.15C745.06 779.18 744.34 778.55 743.67 778.19Z" fill="#EAC2AB"/>
<path d="M771.93 781.21C774.02 780.09 775.69 781.53 779.85 782.81C789.44 785.74 799.31 787.74 809.28 788.76C813.04 789.15 817.14 789.53 819.89 792.12C822.59 794.66 823.24 798.61 824.39 802.13C829 816.22 842.54 825.05 852.32 836.21C853.22 837.23 854.13 838.64 853.49 839.84C853.04 840.69 851.99 841.01 851.03 841.15C845.27 842 839.58 839.41 834.51 836.53C826.8 832.16 819.56 826.98 812.93 821.11C808.58 817.25 804.38 813.01 799.04 810.7C796.29 809.51 793.34 808.87 790.44 808.13C780.73 805.64 771.34 801.87 762.61 796.95C764.74 792.79 766.6 786.67 769.66 783.18C770.54 782.19 771.26 781.57 771.93 781.21Z" fill="#EAC2AB"/>
<path d="M756.17 802.56C792.15 780.41 835.46 774.76 876.21 763.6C916.96 752.44 959.36 732.32 977.38 694.1C981.94 684.44 983.9 671.13 975.47 664.57C972.22 662.04 968.04 661.11 963.98 660.42C920.22 653.02 875.61 666.73 835.03 684.69C825.91 688.73 816.85 693 807.29 695.84C789.24 701.2 770.1 701.24 751.28 701.24C728.91 701.24 706.54 701.25 684.18 700.94C669.75 700.74 655.05 700.37 641.37 695.76C632.35 692.72 624.05 687.92 615.4 683.95C594.86 674.51 572.19 669.74 549.59 670.09C540.43 670.23 530.98 671.3 522.99 675.78C515 680.26 508.76 688.85 509.36 697.99C510.17 710.29 522.03 718.51 532.83 724.43C569.52 744.55 608.47 760.27 647.92 774.25C662.62 779.46 688.58 785.05 704.15 785.98C719.33 786.88 725.78 782.48 739.52 780.2C752.36 778.08 750.25 792.7 756.17 802.56Z" fill="#5A54FF"/>
<path d="M814.48 744.14C844.74 733.54 874.99 722.95 905.25 712.35C885.94 712.99 866.39 713.67 847.84 719.06C828.07 724.81 810.23 735.68 791.31 743.81C772.39 751.95 751.03 757.37 731.29 751.52C724.12 749.39 717.52 745.69 710.48 743.16C639.54 717.71 621.41 698.34 597.56 717.71C613.78 710.89 704.52 756.9 732.84 775.09C748.89 785.4 756.09 772.09 769.81 763.64C783.67 755.11 799.17 749.5 814.48 744.14Z" fill="#4B369D"/>
<path d="M738.47 501.95C738.47 501.95 699.8 564.77 668.86 619.16C661.61 631.91 652.08 643.26 640.95 652.27C632.75 658.9 623.26 663.35 613.76 667.35C610.2 668.85 604.97 672.25 601.12 672.3C596.39 672.37 593.25 668.69 589 667.16C587.17 666.5 585.18 666.36 583.28 666.76C573.03 668.89 587.05 677.78 590.03 676.01C585.48 678.7 580.26 679.69 575.3 681.32C570.34 682.95 565.28 685.49 562.5 690.19C561.19 692.4 560.6 695.61 562.37 697.41C563.37 698.42 564.82 698.67 566.18 698.85C571.56 699.57 576.98 700.01 582.41 700.17C595.74 700.57 599.64 693.5 610.29 685.94C621.29 678.13 641.19 669.72 652.18 661.93C663.76 653.72 677.27 643.99 684.01 630.54C697.18 604.27 741.93 522.51 741.93 522.51L738.47 501.95Z" fill="#EAC2AB"/>
<path d="M779.14 507.98C779.14 507.98 817.79 559.22 853.69 610.46C862.11 622.47 872.66 632.88 884.59 640.8C893.37 646.63 903.24 650.17 913.07 653.26C916.76 654.42 922.28 657.31 926.12 657C930.83 656.62 933.61 652.66 937.71 650.75C939.47 649.93 941.44 649.6 943.37 649.81C953.78 650.97 940.65 661.13 937.51 659.65C942.29 661.9 947.58 662.39 952.68 663.55C957.78 664.71 963.05 666.76 966.26 671.18C967.77 673.25 968.66 676.4 967.07 678.35C966.17 679.45 964.75 679.83 963.41 680.14C958.12 681.36 952.77 682.31 947.38 682.98C934.15 684.63 929.6 677.96 918.29 671.43C906.61 664.68 886.01 658.19 874.34 651.46C862.04 644.38 847.68 635.96 839.7 623.19C824.13 598.28 771.89 521.08 771.89 521.08L779.14 507.98Z" fill="#EAC2AB"/>
<path d="M694.74 706.03C705.55 707.34 716.14 703.91 727.09 702.82C737.83 701.75 749.08 704.55 759.5 706.82C782.03 711.73 802.17 708.63 822.5 697.77C835.43 690.87 815.05 670.93 810.97 663.4C806.99 656.06 805.25 647.74 803.9 639.51C800 615.8 798.89 591.62 800.63 567.65C801.93 549.63 795.72 536.73 790.01 520.02C787.16 511.69 791.36 508.77 786.28 501.95C783.17 497.78 769.77 510.68 764.77 510.27C755.23 509.49 742.64 497.27 736.18 504.27C730.85 510.05 727.11 517.08 723.44 524.04C714.08 541.75 704.55 559.96 702.1 579.84C698.82 606.51 705.57 625.92 696.93 651.6C694.63 658.45 692.71 673.7 678.08 700.84C677.98 701.04 687 704.21 687.64 704.43C690.02 705.24 692.39 705.75 694.74 706.03Z" fill="#F44E4E"/>
<path d="M769.64 346.6C769.64 346.6 777.58 364.25 765.17 375.12C752.76 385.99 735.89 377.38 719.51 387.34C703.13 397.3 704.9 409.09 712.41 435.34C721.34 466.57 731.11 465.64 739.88 467.9C748.65 470.16 751.28 494.6 752.27 505.93C753.84 523.86 737.74 529.79 725.4 538.13C715.15 545.06 707.71 552.58 711.43 565.75C713.07 571.56 715.46 577.74 713.45 583.44C711.52 588.91 705.85 592.36 700.12 593.3C692.18 594.6 680.25 595.02 685 584.74C695.35 562.32 676.22 564.51 672.12 547.17C667.65 528.28 659.24 512.75 680.73 501.42C687.15 498.03 694.33 494.83 697.79 488.45C704.64 475.84 694.33 464 688.94 453.23C681.07 437.51 678.18 419.18 683.78 402.26C693.21 373.74 683.28 382.34 695.69 359.71C708.1 337.09 753.26 312.19 769.64 346.6Z" fill="#4B369D"/>
<path d="M724.45 379.45C724.45 379.45 704.06 392.37 709.49 425.03C714.92 457.68 744.59 487.44 754.4 486.19C781.53 482.74 784.64 463.86 795.07 448.29C807.86 429.2 788.71 379.05 788.71 379.05L768.19 366.03L724.45 379.45Z" fill="#EAC2AB"/>
<path d="M754.25 367.42C754.25 367.42 767.75 371.95 779.61 390.96C791.47 409.97 804.52 418.22 795.97 442.21C792.06 453.17 788.86 462.71 784.88 472.27C779.96 484.1 776.28 496.37 774.17 509.02C772.39 519.68 777.64 522.97 784.32 529.64C797.56 542.86 798.05 561.17 809.75 573.94C817.74 582.66 838.18 592.22 849.55 584.69C860.47 577.45 827.9 582.29 834.36 551.05C840.82 519.81 843.02 506.56 824.16 497.89C805.3 489.21 814.31 486.92 824.24 467.91C834.17 448.9 808.58 449.13 818.68 416.04C830.34 377.85 819.77 335.28 762.7 347.05C705.61 358.82 754.25 367.42 754.25 367.42Z" fill="#4B369D"/>
<path d="M740.35 403.77C756.73 393.81 752.76 385.98 765.17 375.12C777.58 364.26 769.64 346.6 769.64 346.6C753.26 312.2 708.1 337.09 695.69 359.73C683.28 382.36 693.21 373.76 683.78 402.28C677.28 421.94 684.22 441.55 688.94 453.25L709.27 454.65C698.47 413.63 728.04 411.25 740.35 403.77Z" fill="#4B369D"/>
</svg>
