<svg width="959" height="855" viewBox="0 0 959 855" fill="none" xmlns="http://www.w3.org/2000/svg">
<rect width="959" height="855" fill="white"/>
<path d="M108.79 665.45C107.69 657.36 107.92 647.39 114.95 643.25C125.28 637.16 136.08 649.6 146.19 656.06C148.51 657.54 151.18 658.76 153.91 658.46C156.63 658.16 158.99 656.37 160.76 654.28C166.98 646.97 167.25 636.39 166.25 626.84C165.25 617.29 163.32 607.43 166.2 598.28C169.07 589.13 178.98 581.28 187.95 584.63C208.14 592.18 208.81 564.44 218.01 553.55C221.89 548.96 227.9 545.71 233.81 546.74C239.61 547.76 244.01 552.55 247.02 557.61C253.87 569.13 256.44 585.41 251.42 598.16C246.7 610.15 232.33 617.42 233.25 631.97C233.89 641.98 242.76 650.43 242.04 660.43C241.44 668.78 234.3 675.34 232.75 683.56C230.67 694.64 239.14 705.89 236.37 716.82C234.57 723.92 228.34 729.22 226.36 736.28C223.92 744.98 228.41 753.93 229.7 762.87C232.46 782.02 218.61 803.05 198.64 805.28C181.57 807.19 169.9 789.52 159.74 777.76C132.52 746.23 114.4 706.77 108.79 665.45Z" fill="#FDC510"/>
<path d="M191.71 757.14C191.68 757.14 191.64 757.14 191.6 757.14C190.57 757.08 189.78 756.2 189.84 755.16L195.58 653.42C195.63 652.39 196.42 651.63 197.56 651.66C198.59 651.72 199.38 652.6 199.32 653.64L193.58 755.38C193.53 756.37 192.7 757.14 191.71 757.14Z" fill="white"/>
<path d="M195.07 697.64C194.63 697.64 194.19 697.49 193.84 697.18L168.08 674.66C167.3 673.98 167.22 672.8 167.9 672.02C168.58 671.24 169.77 671.16 170.54 671.84L196.3 694.36C197.08 695.04 197.16 696.22 196.48 697C196.11 697.43 195.59 697.64 195.07 697.64Z" fill="white"/>
<path d="M184.58 815.81C176.28 814.12 167.71 808.34 159.33 803.9C141.02 794.2 137.14 777.72 60.8501 780.24C25.3901 781.41 43.3001 739.45 18.4201 714.01C10.5601 705.98 2.72012 696.92 0.96012 685.82C-0.79988 674.72 6.31012 661.54 17.5301 660.94C24.2701 660.58 30.3401 664.59 36.6201 667.05C42.9001 669.51 51.3801 669.79 55.0501 664.13C50.0701 657.43 42.9501 652.69 36.9501 646.88C30.9601 641.07 25.8101 633.3 26.6701 625C28.0001 612.17 40.4501 617.53 44.0801 611.65C48.9501 603.76 43.7801 586.37 46.5301 576.3C52.9701 552.69 88.9301 536.84 107.64 557.23C129.29 580.84 126.24 619.81 124.48 651.93C122.03 696.59 167.29 702.34 187.02 728.87C201.25 747.99 223.65 783.3 205.87 806.77C199.19 815.58 191.99 817.32 184.58 815.81Z" fill="#F44E4E"/>
<path d="M203.49 821.78C202.94 821.78 202.4 821.54 202.03 821.08L102.66 698.1C102.01 697.3 102.13 696.11 102.94 695.46C103.75 694.81 104.92 694.94 105.57 695.74L204.94 818.73C205.59 819.53 205.47 820.72 204.66 821.37C204.33 821.65 203.91 821.78 203.49 821.78Z" fill="white"/>
<path d="M154.57 764.1C154.36 764.1 154.14 764.06 153.93 763.99L95.01 742.55C94.04 742.2 93.54 741.12 93.89 740.15C94.24 739.18 95.31 738.67 96.29 739.03L155.21 760.47C156.18 760.82 156.68 761.9 156.33 762.87C156.06 763.63 155.34 764.1 154.57 764.1Z" fill="white"/>
<path d="M126.6 727.08C126.39 727.08 126.17 727.04 125.96 726.97L67.0398 705.53C66.0698 705.18 65.5698 704.1 65.9198 703.13C66.2698 702.16 67.3398 701.66 68.3198 702.01L127.24 723.45C128.21 723.8 128.71 724.88 128.36 725.85C128.08 726.6 127.36 727.08 126.6 727.08Z" fill="white"/>
<path d="M175.12 789.53C174.08 789.53 173.24 788.69 173.25 787.65L173.39 735.83C173.39 734.8 174.23 733.96 175.26 733.96C176.3 733.96 177.13 734.8 177.13 735.84L176.99 787.66C176.99 788.69 176.15 789.53 175.12 789.53Z" fill="white"/>
<path d="M872.98 623.97C857.04 627.06 914.47 604.81 898.54 607.9C907.98 585.95 870.39 589.65 878.88 567.45C854.54 567.06 826.08 538.71 823.86 558.46C876.38 477.07 810.81 491.18 794.82 436.94C792.86 430.28 788.21 422.46 779.8 422.36C774.16 422.3 769.51 425.96 766.37 429.78C740.2 461.65 776.03 505.24 764.4 542.39C755.5 543.83 748.85 536.25 743.67 530.18C738.49 524.11 728.17 518.2 721.31 523.05C716.58 526.39 717.5 532.48 719.06 537.42C726.57 561.07 739.85 583.5 757.89 603.01C750.25 607.35 740.25 602 732.82 597.43C725.39 592.86 713.26 589.43 708.11 595.74C705.17 599.35 706.61 604.18 708.56 608.21C714.36 620.17 723.93 630.9 736.11 639.1C756.14 652.58 729.41 653.36 730.1 665.53C730.87 679.04 742.07 681.21 739.35 697.04C735.91 717 717.7 730.47 752.82 732.96C775.91 734.6 803.84 719.22 819.25 706.88C832.96 695.91 844.05 681.36 852.93 667.57C855.85 663.02 870.79 624.39 872.98 623.97Z" fill="#FDC510"/>
<path d="M742.68 755.04C812.97 742.32 880.66 717.79 941.34 683.04C947.22 679.67 953.27 675.99 956.67 670.46C960.07 664.93 959.85 657.03 954.35 653.16C949.99 650.1 943.92 650.42 938.44 650.88C922.23 652.24 906.02 653.61 889.82 654.97C907.63 638.83 924.55 621.85 940.47 604.14C944.47 599.69 948.4 592.94 944.07 588.76C941.69 586.46 937.84 586.22 934.38 586.12C925.68 585.89 916.98 585.65 908.28 585.42C917.42 573.45 924.84 560.4 930.3 546.69C932.68 540.7 934.72 534.27 933.28 528.03C931.84 521.8 925.82 516.01 918.86 516.5C915.16 516.76 911.86 518.67 908.86 520.66C884.23 537.06 868.33 563.89 866.79 591.67C866.16 603.06 865.55 617.75 853.68 621.35C849.43 622.64 844.79 621.95 840.33 622.39C823.21 624.09 813.5 641.41 811.06 656.96C808.63 672.5 810.06 689.2 801.71 702.92C798.16 708.75 793.03 713.67 789.36 719.43C785.69 725.2 783.59 732.47 786.71 738.5C789.83 744.53 799.81 747.44 804.77 742.54" fill="#5A54FF"/>
<path d="M778.59 709.43C778.52 709.43 778.45 709.43 778.37 709.42C777.34 709.3 776.6 708.38 776.72 707.35L796.45 532.88C796.57 531.85 797.5 531.12 798.52 531.23C799.55 531.35 800.29 532.27 800.17 533.3L780.44 707.77C780.34 708.72 779.53 709.43 778.59 709.43Z" fill="white"/>
<path d="M785.93 644.45C785.51 644.45 785.08 644.31 784.73 644.01C783.94 643.35 783.83 642.16 784.5 641.37L829.38 587.76C830.05 586.97 831.23 586.86 832.02 587.53C832.81 588.19 832.92 589.38 832.25 590.17L787.37 643.78C786.99 644.23 786.46 644.45 785.93 644.45Z" fill="white"/>
<path d="M790.82 601.27C790.26 601.27 789.7 601.01 789.33 600.53L761.74 564.11C761.11 563.29 761.28 562.11 762.1 561.49C762.92 560.87 764.09 561.02 764.72 561.85L792.31 598.27C792.94 599.09 792.77 600.27 791.95 600.89C791.61 601.15 791.21 601.27 790.82 601.27Z" fill="white"/>
<path d="M826.44 733.27C826.15 733.27 825.85 733.2 825.58 733.06C824.66 732.59 824.3 731.46 824.77 730.54L884.44 614.92C884.92 614 886.05 613.64 886.96 614.11C887.88 614.58 888.24 615.71 887.77 616.63L828.1 732.25C827.77 732.9 827.12 733.27 826.44 733.27Z" fill="white"/>
<path d="M859.7 668.82C858.94 668.82 858.22 668.35 857.94 667.59L849.03 643.22C848.68 642.25 849.18 641.17 850.15 640.82C851.12 640.46 852.2 640.97 852.55 641.94L861.46 666.31C861.81 667.28 861.31 668.36 860.34 668.71C860.13 668.78 859.91 668.82 859.7 668.82Z" fill="white"/>
<path d="M850.72 688.57C849.69 688.57 848.85 687.74 848.85 686.71C848.84 685.67 849.67 684.83 850.71 684.82L899.31 684.46C899.32 684.46 899.32 684.46 899.32 684.46C900.35 684.46 901.19 685.29 901.19 686.32C901.2 687.36 900.37 688.2 899.33 688.21L850.73 688.57C850.73 688.57 850.73 688.57 850.72 688.57Z" fill="white"/>
<path d="M396.62 671.28C397.22 669.43 397.85 667.6 398.51 665.77C421.42 602.34 478.92 557.59 539.06 527.07C559.81 516.54 581.79 506.82 597.48 489.65C633.22 450.55 622.33 386.05 575.84 360.8C597.43 372.52 659.9 348.3 626.28 323.62C618.33 317.78 608.31 315.68 599.43 311.39C590.55 307.1 582.04 299 582.65 289.15C582.92 284.85 584.92 280.84 587.34 277.27C597.94 261.67 616.6 252.82 626.6 236.83C628.81 233.29 630.6 229.25 630.25 225.09C629.69 218.49 623.75 213.37 617.37 211.61C553.91 194.13 505.01 271.26 442.19 264.24C438.6 263.84 434.76 263.21 431.56 264.88C427.84 266.83 426.24 271.24 425.17 275.3C417.74 303.28 419.94 333.73 431.33 360.35C440.79 382.47 456.73 403.78 454.33 427.72C452.18 449.15 435.38 467.61 435.83 489.14C435.95 494.87 437.3 500.72 435.83 506.26C433.61 514.61 425.63 520 417.9 523.86C380.3 542.63 336.51 542.92 295.58 552.44C292.69 553.11 289.66 553.91 287.56 556C283.9 559.63 284.38 565.54 284.89 570.67C288.89 610.64 279.34 650.59 269.86 689.62C259.39 732.73 248.92 775.84 238.45 818.95C237.34 823.51 236.4 828.86 239.43 832.44C241.09 834.41 243.63 835.38 246.06 836.23C260.16 841.16 274.71 844.77 289.48 847.01C301.18 848.79 313.38 849.66 324.66 846.07C342.19 840.49 354.8 824.94 363 808.47C384.04 766.19 382.02 716.15 396.62 671.28Z" fill="#D4A79A"/>
<path d="M310.83 431.16C318.19 411.72 327.7 393.11 334.11 373.33C339.26 357.43 342.34 340.93 344.89 324.41C349.55 294.28 349.57 263.88 350.81 233.41C366.4 240.64 384.26 257.71 386.91 274.69C389.55 291.67 383.95 308.96 382.1 326.05C377.55 368.22 376.26 414.26 401.76 448.15C411.4 460.96 423.95 471.3 434.03 483.76C444.11 496.23 451.83 512.08 449.11 527.88C445.74 547.49 427.82 560.85 410.79 571.14C388.47 584.63 365.19 596.52 341.18 606.68C327.03 612.67 324.81 619.03 305.69 619.23C295.21 619.34 280.92 583.94 284.8 540.89C289.09 493.14 293.61 476.66 310.83 431.16Z" fill="#D4A79A"/>
<path d="M556.62 57.0901H386.12C366.73 57.0901 350.87 72.9501 350.87 92.3401V263.35C425.97 195.93 502.53 130.14 582.35 68.4201C575.91 61.4901 566.77 57.0901 556.62 57.0901Z" fill="#EFF0FC"/>
<path d="M582.36 68.4199C502.54 130.14 425.99 195.93 350.88 263.35V413.09V509.63C350.88 529.01 366.74 544.88 386.13 544.88H556.62C576.01 544.88 591.87 529.02 591.87 509.63V92.3299C591.87 83.2699 588.38 75.0099 582.71 68.7499C582.59 68.6399 582.47 68.5399 582.36 68.4199Z" fill="#E3E5FC"/>
<path fill-rule="evenodd" clip-rule="evenodd" d="M386.12 57.0901H556.62C576 57.0901 591.86 72.9501 591.86 92.3401V509.64C591.86 529.03 576 544.89 556.61 544.89H386.12C366.73 544.89 350.87 529.03 350.87 509.64V92.3401C350.87 72.9501 366.73 57.0901 386.12 57.0901ZM541.32 499.38C560.71 499.38 576.57 483.52 576.57 464.13V108.73C576.57 89.3401 560.7 73.4801 541.32 73.4801H401.41C382.02 73.4801 366.16 89.3401 366.16 108.73V464.13C366.16 483.52 382.02 499.38 401.41 499.38H541.32Z" fill="#5A54FF"/>
<path d="M495.03 68.25H447.71C447.13 68.25 446.66 67.78 446.66 67.2V65.28C446.66 64.7 447.13 64.23 447.71 64.23H495.03C495.61 64.23 496.08 64.7 496.08 65.28V67.2C496.08 67.78 495.61 68.25 495.03 68.25Z" fill="#E3E5FC"/>
<path d="M471.37 533.12C478.274 533.12 483.87 527.524 483.87 520.62C483.87 513.717 478.274 508.12 471.37 508.12C464.467 508.12 458.87 513.717 458.87 520.62C458.87 527.524 464.467 533.12 471.37 533.12Z" fill="#4B369D"/>
<path opacity="0.36" d="M476.21 343.93C513.152 343.93 543.1 313.982 543.1 277.04C543.1 240.098 513.152 210.15 476.21 210.15C439.267 210.15 409.32 240.098 409.32 277.04C409.32 313.982 439.267 343.93 476.21 343.93Z" fill="#F44E4E"/>
<path opacity="0.36" d="M476.21 327.69C504.183 327.69 526.86 305.013 526.86 277.04C526.86 249.067 504.183 226.39 476.21 226.39C448.237 226.39 425.56 249.067 425.56 277.04C425.56 305.013 448.237 327.69 476.21 327.69Z" fill="#F44E4E"/>
<path d="M476.21 304.38C491.31 304.38 503.55 292.139 503.55 277.04C503.55 261.94 491.31 249.7 476.21 249.7C461.111 249.7 448.87 261.94 448.87 277.04C448.87 292.139 461.111 304.38 476.21 304.38Z" fill="#F44E4E"/>
<path d="M638.6 72.63C636.53 72.63 634.85 70.95 634.85 68.88C634.85 35.2 607.45 7.79004 573.76 7.79004C571.69 7.79004 570.01 6.11004 570.01 4.04004C570.01 1.97004 571.69 0.290039 573.76 0.290039C611.57 0.290039 642.34 31.05 642.34 68.87C642.35 70.95 640.67 72.63 638.6 72.63Z" fill="#A7ADFF"/>
<path d="M617.59 72.6299C615.52 72.6299 613.84 70.9499 613.84 68.8799C613.84 48.1999 597.02 31.3799 576.34 31.3799C574.27 31.3799 572.59 29.6999 572.59 27.6299C572.59 25.5599 574.27 23.8799 576.34 23.8799C601.15 23.8799 621.33 44.0599 621.33 68.8799C621.34 70.9499 619.66 72.6299 617.59 72.6299Z" fill="#A7ADFF"/>
<path d="M771.03 118.55H675.12C672.01 118.55 669.47 116.01 669.47 112.9V107.39C669.47 104.28 672.01 101.74 675.12 101.74H771.03C774.14 101.74 776.68 104.28 776.68 107.39V112.9C776.68 116.01 774.14 118.55 771.03 118.55Z" fill="#E3E5FC"/>
<path d="M771.03 147.08H675.12C672.01 147.08 669.47 144.54 669.47 141.43V135.92C669.47 132.81 672.01 130.27 675.12 130.27H771.03C774.14 130.27 776.68 132.81 776.68 135.92V141.43C776.68 144.53 774.14 147.08 771.03 147.08Z" fill="#E3E5FC"/>
<path d="M771.03 175.6H675.12C672.01 175.6 669.47 173.06 669.47 169.95V164.44C669.47 161.33 672.01 158.79 675.12 158.79H771.03C774.14 158.79 776.68 161.33 776.68 164.44V169.95C776.68 173.06 774.14 175.6 771.03 175.6Z" fill="#E3E5FC"/>
<path d="M771.03 204.13H675.12C672.01 204.13 669.47 201.59 669.47 198.48V192.97C669.47 189.86 672.01 187.32 675.12 187.32H771.03C774.14 187.32 776.68 189.86 776.68 192.97V198.48C776.68 201.59 774.14 204.13 771.03 204.13Z" fill="#E3E5FC"/>
<path d="M266.97 235.8H46.3502C43.2402 235.8 40.7002 233.26 40.7002 230.15V218.59C40.7002 215.48 43.2402 212.94 46.3502 212.94H266.97C270.08 212.94 272.62 215.48 272.62 218.59V230.15C272.62 233.26 270.08 235.8 266.97 235.8Z" fill="#E3E5FC"/>
<path d="M266.97 274.59H132.49C129.38 274.59 126.84 272.05 126.84 268.94V257.38C126.84 254.27 129.38 251.73 132.49 251.73H266.97C270.08 251.73 272.62 254.27 272.62 257.38V268.94C272.62 272.05 270.08 274.59 266.97 274.59Z" fill="#E3E5FC"/>
<path d="M266.97 361.57H139.98C136.87 361.57 134.33 359.03 134.33 355.92V344.37C134.33 341.26 136.87 338.72 139.98 338.72H266.97C270.08 338.72 272.62 341.26 272.62 344.37V355.92C272.62 359.03 270.08 361.57 266.97 361.57Z" fill="#E3E5FC"/>
<path d="M266.97 400.36H191.34C188.23 400.36 185.69 397.82 185.69 394.71V383.15C185.69 380.04 188.23 377.5 191.34 377.5H266.97C270.08 377.5 272.62 380.04 272.62 383.15V394.71C272.62 397.82 270.08 400.36 266.97 400.36Z" fill="#E3E5FC"/>
<path d="M670.68 662.19C669.51 653.2 668.78 644.09 668.61 634.82C667.53 573.64 676.53 493.64 618.03 456.19C591.71 439.34 556.92 438.26 535.56 412.88C527.7 403.54 523.47 391.59 519.46 379.91C506.96 343.53 494.89 306.99 483.27 270.3C471.33 271.61 464.5 285.1 461.87 297.24C454.24 332.43 463.77 369.13 476.24 402.79C488.71 436.45 504.34 469.4 509.54 505.06C511.51 518.59 507.39 537.59 494.2 537.09C487.23 536.82 481.94 530.56 478.38 524.34C463.91 499.07 459.6 463 433.13 452.47C426.12 449.68 416.1 450.69 413.81 458.11C412.57 462.11 411.23 466.4 412.8 470.27C434.82 524.83 451.29 574.12 485.19 621.69C498.12 639.84 525.54 658.78 537.99 677.33C582.57 743.76 581.51 754 617.95 824.87C620.36 829.56 625.25 784.67 629.75 787.22C634.08 789.68 631.12 809.47 636.02 808.86C660.77 805.79 689.57 823.69 711.77 811.94C715.46 809.99 719.35 807.84 721.39 804.09C723.43 800.33 723.17 795.75 722.86 791.45C717.55 718.92 680.02 733.74 670.68 662.19Z" fill="#EAC2AB"/>
<path d="M832.67 714.71C822.66 708.09 810.7 704.2 797.87 704.2H427.02C426.3 704.2 425.61 704.28 424.89 704.31C479.3 718.61 533.16 735.73 586.46 753.96C670.06 787.39 749.29 740.35 832.67 714.71Z" fill="#E3E5FC"/>
<path d="M832.67 714.71C749.29 740.35 670.06 787.39 586.47 753.96C533.17 735.73 479.31 718.6 424.9 704.31C391.01 705.45 363.62 733.45 363.62 767.61C363.62 802.49 392.15 831.02 427.03 831.02H797.87C832.74 831.02 861.28 802.49 861.28 767.61C861.27 745.57 849.86 726.08 832.67 714.71Z" fill="#978CFF"/>
<path d="M492.36 854.57H153.97C129.2 854.57 108.94 834.31 108.94 809.54V802.69C108.94 777.92 129.2 757.66 153.97 757.66H492.36C517.13 757.66 537.39 777.92 537.39 802.69V809.54C537.39 834.3 517.13 854.57 492.36 854.57Z" fill="#5A54FF"/>
<path d="M493.53 806.45L492.02 808.3C491.67 808.73 491.03 808.79 490.6 808.44L464 786.77C463.57 786.42 463.51 785.78 463.86 785.35L465.37 783.5C465.72 783.07 466.36 783.01 466.79 783.36L493.4 805.03C493.82 805.38 493.88 806.02 493.53 806.45Z" fill="white"/>
<path d="M493.53 805.77L492.02 803.92C491.67 803.49 491.03 803.43 490.6 803.78L464 825.45C463.57 825.8 463.51 826.44 463.86 826.87L465.37 828.72C465.72 829.15 466.36 829.21 466.79 828.86L493.4 807.19C493.82 806.84 493.88 806.2 493.53 805.77Z" fill="white"/>
<path d="M457 806.45L455.49 808.3C455.14 808.73 454.5 808.79 454.07 808.44L427.46 786.77C427.03 786.42 426.97 785.78 427.32 785.35L428.83 783.5C429.18 783.07 429.82 783.01 430.25 783.36L456.86 805.03C457.28 805.38 457.35 806.02 457 806.45Z" fill="white"/>
<path d="M457 805.77L455.49 803.92C455.14 803.49 454.5 803.43 454.07 803.78L427.46 825.45C427.03 825.8 426.97 826.44 427.32 826.87L428.83 828.72C429.18 829.15 429.82 829.21 430.25 828.86L456.86 807.19C457.28 806.84 457.35 806.2 457 805.77Z" fill="white"/>
<path d="M417.12 806.45L415.61 808.3C415.26 808.73 414.62 808.79 414.19 808.44L387.58 786.77C387.15 786.42 387.09 785.78 387.44 785.35L388.95 783.5C389.3 783.07 389.94 783.01 390.37 783.36L416.98 805.03C417.41 805.38 417.47 806.02 417.12 806.45Z" fill="white"/>
<path d="M417.12 805.77L415.61 803.92C415.26 803.49 414.62 803.43 414.19 803.78L387.58 825.45C387.15 825.8 387.09 826.44 387.44 826.87L388.95 828.72C389.3 829.15 389.94 829.21 390.37 828.86L416.98 807.19C417.41 806.84 417.47 806.2 417.12 805.77Z" fill="white"/>
</svg>
