<svg width="1227" height="924" viewBox="0 0 1227 924" fill="none" xmlns="http://www.w3.org/2000/svg">
<rect width="1227" height="924" fill="white"/>
<path d="M794.33 420.8C794.33 420.8 854.12 516.62 911.26 569.41C968.4 622.2 1034.91 676.28 994.63 775.59C954.35 874.9 835.63 915.57 623.33 910.38C411.03 905.19 336.07 904.06 289.51 798.74C242.95 693.42 397.91 669.8 503.76 637.78C609.61 605.76 794.33 420.8 794.33 420.8Z" fill="#E3E5FC"/>
<path opacity="0.49" d="M804.54 629.98C804.54 629.98 833.66 742.38 729.84 769.06C626.02 795.75 432.3 791.82 359.37 739.89C286.44 687.96 804.54 629.98 804.54 629.98Z" fill="url(#paint0_linear)"/>
<path d="M1074.81 824.56C1085.09 818.23 1089.99 804.36 1085.97 792.98C1079.39 774.38 1062.38 780.65 1050.29 770.88C1036.05 759.38 1053.27 741.29 1052.32 727.71C1051.28 712.77 1037.83 698.34 1033.78 683.9C1024.49 650.71 1062.22 675.48 1072.98 671.61C1077.48 669.99 1080.43 665.47 1081.47 660.79C1084.11 648.86 1079.09 639.22 1085.62 627.93C1091.93 617.03 1101.25 612.11 1098.56 597.31C1097.04 588.93 1091.87 581.25 1092 572.73C1092.04 570.29 1092.73 567.55 1094.86 566.36C1096.48 565.45 1098.5 565.7 1100.25 566.31C1106.06 568.35 1109.88 573.77 1114.56 577.78C1119.24 581.79 1126.76 584.27 1131.25 580.05C1134.24 577.24 1134.53 572.7 1135.14 568.64C1136.23 561.32 1141.37 556.24 1147.75 560.47C1154.7 565.08 1152.04 583.23 1150.99 589.74C1149.33 600.06 1146.81 610.78 1149.88 620.78C1154.95 637.32 1168.81 618.79 1174.85 613.31C1179.8 608.82 1188.07 606.13 1192.82 610.82C1202.28 620.15 1187.07 632.62 1185.07 641.46C1184.11 645.67 1185.35 650.71 1189.09 652.87C1200.04 659.21 1209.29 647.91 1210.95 664.78C1212.09 676.34 1201.63 687.36 1208.12 698.92C1213.79 709.02 1232.66 713.31 1225.2 727.48C1220.62 736.18 1200.9 735.79 1201.94 748.17C1202.62 756.24 1214.75 759.9 1214.76 768C1214.77 774.1 1207.67 777.7 1201.58 778.01C1195.49 778.32 1189.07 776.9 1183.46 779.28C1177.09 781.98 1173.4 789.81 1175.37 796.45C1177.09 802.22 1182.46 807.47 1180.77 813.25C1178.74 820.2 1169.11 820.45 1161.96 819.34C1132.74 814.77 1101.45 811.72 1074.81 824.56Z" fill="#FDC510"/>
<path d="M1129.99 821.68C1128.95 821.68 1128.12 820.84 1128.12 819.81V689.44C1128.12 688.41 1128.96 687.57 1129.99 687.57C1131.03 687.57 1131.86 688.41 1131.86 689.44V819.8C1131.86 820.84 1131.03 821.68 1129.99 821.68Z" fill="white"/>
<path d="M1129.99 770.94C1129.57 770.94 1129.16 770.8 1128.81 770.52C1128.01 769.87 1127.88 768.69 1128.54 767.88L1162.73 725.73C1163.39 724.92 1164.57 724.81 1165.37 725.46C1166.17 726.11 1166.3 727.29 1165.64 728.1L1131.45 770.25C1131.07 770.7 1130.54 770.94 1129.99 770.94Z" fill="white"/>
<path d="M1129.99 735.34C1129.56 735.34 1129.13 735.2 1128.78 734.9L1088.03 700.61C1087.24 699.94 1087.14 698.76 1087.8 697.97C1088.47 697.18 1089.65 697.08 1090.44 697.74L1131.19 732.03C1131.98 732.7 1132.08 733.88 1131.42 734.67C1131.05 735.12 1130.52 735.34 1129.99 735.34Z" fill="white"/>
<path d="M1069.11 806.29C1074.47 841.92 1079.3 879.19 1088.32 913.57C1089.07 916.43 1089.95 919.43 1091.77 921.27C1093.92 923.44 1096.84 923.48 1099.53 923.42C1115.09 923.06 1130.68 924.06 1146.24 923.97C1160.95 923.89 1173.1 925.08 1174.64 900.65C1175.17 892.18 1176.51 806.28 1184.32 806.28C1184.29 806.29 1069.11 806.29 1069.11 806.29Z" fill="#978CFF"/>
<path d="M1173.8 827.58H1079.63C1067.92 827.58 1058.33 818 1058.33 806.28C1058.33 794.57 1067.91 784.98 1079.63 784.98H1173.8C1185.51 784.98 1195.1 794.56 1195.1 806.28C1195.1 818 1185.51 827.58 1173.8 827.58Z" fill="#A7ADFF"/>
<path d="M719.86 45.38C719.86 45.38 732.2 72.8 712.92 89.68C693.64 106.56 667.43 93.2 641.99 108.66C616.55 124.12 619.29 142.44 630.96 183.23C644.84 231.75 660 230.3 673.63 233.81C687.26 237.33 691.33 275.3 692.87 292.88C694.41 310.46 696.72 322.41 648.15 346.32C599.58 370.23 626.08 406.8 630.95 454.2C636.34 506.63 574.13 536.87 563.34 549.53C552.55 562.19 527.1 564.3 513.22 537.58C499.34 510.86 569.87 491.19 563.71 448.3C557.54 405.41 519.88 376.55 573.08 334.36C626.28 292.17 615.77 258.43 598.04 223.98C580.31 189.53 571.83 176.17 586.47 131.87C601.11 87.57 585.7 100.93 604.97 65.77C624.26 30.62 694.42 -8.06 719.86 45.38Z" fill="#4B369D"/>
<path d="M686.31 253.49L690.18 325.68L746.69 347.47C746.69 347.47 712.71 297.75 718.47 253.48C724.23 209.22 686.31 253.49 686.31 253.49Z" fill="#D4A79A"/>
<path d="M817.27 487.68C817.27 487.68 813.52 480.81 802.28 445.53C791.04 410.25 786.98 397.13 771.37 362.99C755.76 328.85 723.28 307.52 723.28 307.52L682.69 305.33C682.69 305.33 677.69 305.64 654.28 325C630.86 344.36 608.38 399.63 608.38 399.63L598.39 509.54L668.65 561.37L718.31 579.27C715.92 576.08 713.99 572.7 712.79 569.12C704.47 544.39 732.35 407.43 733.29 395.25C734.23 383.07 757.82 499.23 757.82 499.23L778.25 493.3L792.27 537.97L801.04 492.36L817.27 487.68Z" fill="#F44E4E"/>
<path d="M795.1 547.01L792.26 537.97L787.73 561.53L795.1 547.01Z" fill="url(#paint1_linear)"/>
<path d="M757.8 499.23C757.8 499.23 734.21 383.07 733.27 395.25C732.33 407.43 704.45 544.39 712.77 569.12C713.97 572.7 715.9 576.08 718.29 579.27L769.38 597.68L787.73 561.52L792.26 537.96L778.24 493.29L757.8 499.23Z" fill="#FDC510"/>
<path d="M757.8 499.23C757.8 499.23 734.21 383.07 733.27 395.25C732.33 407.43 704.45 544.39 712.77 569.12C713.97 572.7 715.9 576.08 718.29 579.27L769.38 597.68L787.73 561.52L792.26 537.96L778.24 493.29L757.8 499.23Z" fill="#D7384E"/>
<path d="M343.78 455.55L630.64 469.39L686.31 523.31L418.37 516.56L343.78 455.55Z" fill="black"/>
<path d="M614.28 478.09L355.3 460.6C348.3 461.14 342.23 456.43 341.74 450.06L289.55 310.04C289.06 303.68 294.33 298.08 301.32 297.54L560.3 315.04C567.3 314.5 573.37 319.21 573.86 325.58L626.05 465.6C626.55 471.95 621.27 477.55 614.28 478.09Z" fill="#E3E5FC"/>
<path d="M484.355 399.565C487.432 385.408 476.538 371.023 460.024 367.433C443.509 363.844 427.627 372.409 424.55 386.566C421.473 400.722 432.367 415.107 448.881 418.697C465.396 422.287 481.278 413.721 484.355 399.565Z" fill="#A7ADFF"/>
<path d="M225.77 704.19L152.54 811.44L185.88 839.61L255.64 723.17C255.64 723.16 239.65 705.17 225.77 704.19Z" fill="#D4A79A"/>
<path d="M4.23001 871.26C4.23001 871.26 32.4 880.88 86.38 884.88C140.36 888.89 200.61 890.89 211.56 882.88C222.51 874.87 229.55 806.76 211.56 806.76C193.57 806.76 186.57 832.8 154.84 809.56C127.66 789.65 105.94 827.19 58.61 837.2C11.28 847.21 -7.88999 851.23 4.23001 871.26Z" fill="#F3AA02"/>
<path d="M681.6 588.22C675.13 576.05 640.11 582.91 598.14 567.3C556.16 551.69 529.05 518.9 481.36 481.12C433.67 443.34 436.93 449.89 416.35 448.33C395.77 446.77 370.29 502.35 355.91 531.71C325.64 593.53 287.33 648.77 230.1 684.71C212.71 695.63 136.09 737.17 123.29 754.57C96.33 791.19 228.88 791.5 263.54 795.73C297.85 799.91 317.09 780.42 330.97 749.62C346.81 714.49 364.14 680.11 381.45 645.73C390.11 628.53 398.81 611.34 407.3 594.05C410.96 586.6 418.88 559.56 427.71 556.19C454.87 545.85 490.72 628.64 498.34 647.24C513.69 684.71 569.88 728.43 610.71 732.8C651.54 737.17 682.25 710.01 695.64 670.35C709.04 630.69 681.6 588.22 681.6 588.22Z" fill="#4B369D"/>
<path d="M365.46 712.32L292.23 819.57L325.57 847.74L395.33 731.3C395.32 731.29 379.34 713.3 365.46 712.32Z" fill="#EAC2AB"/>
<path d="M143.92 879.39C143.92 879.39 172.09 889.01 226.07 893.01C280.05 897.02 340.3 899.02 351.25 891.01C362.2 883 369.24 814.89 351.25 814.89C333.26 814.89 326.26 840.93 294.53 817.69C267.35 797.78 245.63 835.32 198.3 845.33C150.97 855.34 131.79 859.36 143.92 879.39Z" fill="#FDC510"/>
<path d="M787.6 588.22C781.42 576.05 747.94 582.91 707.82 567.3C667.7 551.69 641.78 518.9 596.19 481.12C550.6 443.34 553.72 449.89 534.05 448.33C514.38 446.77 490.02 502.35 476.28 531.71C434.01 622.02 347.02 682.63 267.85 738.39C262.93 741.85 257.41 746.66 258.43 752.59C258.95 755.61 261.11 758.05 263.32 760.18C292.69 788.53 347.71 801.28 387.25 799.43C427.06 797.57 448.67 764.35 463.71 731.5C490.61 672.73 516.89 612.17 549.57 556.39C561.85 535.45 600.99 619.99 604.39 627.86C624.66 674.86 664.9 726.65 719.85 732.8C758.88 737.17 788.23 710.01 801.04 670.35C813.83 630.69 787.6 588.22 787.6 588.22Z" fill="#5A54FF"/>
<path d="M635.82 99.82C635.82 99.82 605.64 122.08 617.65 172.08C629.66 222.08 667.01 264.78 682.08 261.77C723.75 253.45 738.36 224 752.81 198.73C770.53 167.74 735.35 92.14 735.35 92.14L702.12 74.22L635.82 99.82Z" fill="#EAC2AB"/>
<path d="M695.96 77.73C695.96 77.73 716.93 84.76 735.36 114.29C753.79 143.82 741.7 148.64 741.7 188.23C741.7 199.8 739.53 211.2 733.26 221.06C728.71 228.22 722.22 233.86 717.51 240.88C711.56 249.74 709.66 259.74 710.14 270.31C711.15 292.66 714.72 311.22 734.57 323.84C756.03 337.48 766.04 355.7 771.68 380.32C778.43 409.8 827.03 426.48 843.99 415.23C860.95 403.98 810.36 411.49 820.39 362.98C830.41 314.46 833.85 293.87 804.55 280.39C775.25 266.91 789.25 263.35 804.67 233.82C820.09 204.29 780.34 204.65 796.03 153.25C814.14 93.92 797.73 27.8 709.06 46.08C620.39 64.36 695.96 77.73 695.96 77.73Z" fill="#4B369D"/>
<path d="M674.37 134.19C699.81 118.72 693.65 106.55 712.93 89.68C732.2 72.8 719.87 45.38 719.87 45.38C694.43 -8.06 624.27 30.61 604.99 65.77C585.71 100.93 601.14 87.57 586.49 131.87C576.39 162.4 577.29 178.24 584.63 196.42L626.1 213.21C609.31 149.51 655.23 145.82 674.37 134.19Z" fill="#4B369D"/>
<path d="M777.61 545.13C777.61 545.13 777.61 562.3 771.05 559.18C764.49 556.06 702.98 517.65 694.86 508.6C686.74 499.54 667.69 466.76 666.76 460.2C665.82 453.64 668.95 453.33 656.14 455.2C643.34 457.07 620.23 464.26 623.67 468.31C627.1 472.37 636.78 469.56 636.78 469.56C636.78 469.56 625.44 476.74 630.95 477.68C636.46 478.62 652.7 475.49 652.7 480.49C652.7 485.49 651.76 502.35 655.51 510.78C659.26 519.21 663.94 522.02 676.12 524.83C688.3 527.64 690.45 526.7 700.46 537.01C710.47 547.32 766.36 596.96 773.54 599.46C780.72 601.96 783.84 606.33 792.59 590.4C801.34 574.47 807.58 562.3 808.2 537.32C808.82 512.34 806.01 488.3 806.01 488.3L778.22 493.3C778.24 493.3 780.73 521.4 777.61 545.13Z" fill="#EAC2AB"/>
<defs>
<linearGradient id="paint0_linear" x1="840.872" y1="759.159" x2="835.615" y2="595.412" gradientUnits="userSpaceOnUse">
<stop stop-color="#A7ADFF"/>
<stop offset="1" stop-color="#E3E5FC"/>
</linearGradient>
<linearGradient id="paint1_linear" x1="825.616" y1="449.99" x2="698.897" y2="405.181" gradientUnits="userSpaceOnUse">
<stop stop-color="#A7ADFF"/>
<stop offset="1" stop-color="#E3E5FC"/>
</linearGradient>
</defs>
</svg>
